<svg xmlns="http://www.w3.org/2000/svg" xmlns:xlink="http://www.w3.org/1999/xlink"
    viewBox="0 0 399 400" width="399" height="400" preserveAspectRatio="xMidYMid meet"
    style="width: 100%; height: 100%; transform: translate3d(0px, 0px, 0px); content-visibility: visible;">
    <defs>
        <clipPath id="__lottie_element_2">
            <rect width="399" height="400" x="0" y="0"></rect>
        </clipPath>
        <g id="__lottie_element_12">
            <g
                transform="matrix(0.4439724087715149,0.021650303155183792,-0.021650303155183792,0.4439724087715149,258.6303405761719,252.5340118408203)"
                opacity="1" style="display: block;">
                <g opacity="1" transform="matrix(1,0,0,1,72.91000366210938,68.33000183105469)">
                    <path fill="rgb(17,44,65)" fill-opacity="1"
                        d=" M260.2569885253906,-29.261999130249023 C251.7169952392578,-14.432000160217285 151.89500427246094,354.36700439453125 126.06099700927734,378.0419921875 C101.6510009765625,400.4119873046875 -464.3840026855469,347.4830017089844 -479.9939880371094,355.4230041503906 C-480.8599853515625,352.0580139160156 -585.7440185546875,38.72100067138672 -417.65301513671875,-5.927999973297119 C-261.54998779296875,-47.393001556396484 -62.67900085449219,51.470001220703125 -65.60600280761719,49.875999450683594 C-65.64700317382812,49.84600067138672 -65.66600036621094,49.834999084472656 -65.66600036621094,49.834999084472656 C-56.15599822998047,34.994998931884766 -37.111000061035156,13.510000228881836 -13.255999565124512,-8.354999542236328 C12.043999671936035,-31.545000076293945 36.444000244140625,-49.38399887084961 52.013999938964844,-56.89400100708008 C52.013999938964844,-56.89400100708008 52.02399826049805,-56.89400100708008 52.02399826049805,-56.89400100708008 C60.13399887084961,-60.80400085449219 65.84300231933594,-61.91400146484375 68.04399871826172,-59.51499938964844 C70.15399932861328,-57.21500015258789 264.43798828125,-36.52199935913086 260.2569885253906,-29.261999130249023z"></path>
                    <path stroke-linecap="butt" stroke-linejoin="miter" fill-opacity="0"
                        stroke-miterlimit="10" stroke="rgb(17,44,65)" stroke-opacity="1"
                        stroke-width="2"
                        d=" M260.2569885253906,-29.261999130249023 C251.7169952392578,-14.432000160217285 151.89500427246094,354.36700439453125 126.06099700927734,378.0419921875 C101.6510009765625,400.4119873046875 -464.3840026855469,347.4830017089844 -479.9939880371094,355.4230041503906 C-480.8599853515625,352.0580139160156 -585.7440185546875,38.72100067138672 -417.65301513671875,-5.927999973297119 C-261.54998779296875,-47.393001556396484 -62.67900085449219,51.470001220703125 -65.60600280761719,49.875999450683594 C-65.64700317382812,49.84600067138672 -65.66600036621094,49.834999084472656 -65.66600036621094,49.834999084472656 C-56.15599822998047,34.994998931884766 -37.111000061035156,13.510000228881836 -13.255999565124512,-8.354999542236328 C12.043999671936035,-31.545000076293945 36.444000244140625,-49.38399887084961 52.013999938964844,-56.89400100708008 C52.013999938964844,-56.89400100708008 52.02399826049805,-56.89400100708008 52.02399826049805,-56.89400100708008 C60.13399887084961,-60.80400085449219 65.84300231933594,-61.91400146484375 68.04399871826172,-59.51499938964844 C70.15399932861328,-57.21500015258789 264.43798828125,-36.52199935913086 260.2569885253906,-29.261999130249023z"></path>
                </g>
            </g>
        </g>
        <mask id="__lottie_element_12_1" mask-type="alpha">
            <use xlink:href="#__lottie_element_12"></use>
        </mask>
        <g id="__lottie_element_33">
            <g
                transform="matrix(0.4439724087715149,0.021650303155183792,-0.021650303155183792,0.4439724087715149,30.68996810913086,231.11654663085938)"
                opacity="1" style="display: block;">
                <g opacity="1" transform="matrix(1,0,0,1,75.2249984741211,69.79000091552734)">
                    <path fill="rgb(17,44,65)" fill-opacity="1"
                        d=" M157.56900024414062,82.40299987792969 C153.37899780273438,85.84300231933594 104.28299713134766,296.3280029296875 67.04399871826172,197.5570068359375 C51.874000549316406,191.45700073242188 67.2229995727539,282.1109924316406 -127.37699890136719,211.94500732421875 C-158.52999877929688,200.71200561523438 -143.54400634765625,19.225000381469727 -152.81900024414062,4.357999801635742 C-158.15899658203125,-4.202000141143799 -71.63700103759766,-57.28200149536133 -69.29100036621094,-59.84600067138672 C-66.82099914550781,-62.54600143432617 -59.933998107910156,-60.819000244140625 -50.209999084472656,-55.68600082397461 C-34.599998474121094,-47.44599914550781 -11.701000213623047,-30.405000686645508 12.008999824523926,-8.685999870300293 C15.939000129699707,-5.085999965667725 19.73900032043457,-1.496000051498413 23.378999710083008,2.053999900817871 C23.39900016784668,2.0739998817443848 23.420000076293945,2.0940001010894775 23.43000030517578,2.1040000915527344 C46.15999984741211,24.253999710083008 151.7689971923828,70.02300262451172 157.56900024414062,82.40299987792969z"></path>
                    <path stroke-linecap="butt" stroke-linejoin="miter" fill-opacity="0"
                        stroke-miterlimit="10" stroke="rgb(17,44,65)" stroke-opacity="1"
                        stroke-width="2"
                        d=" M157.56900024414062,82.40299987792969 C153.37899780273438,85.84300231933594 104.28299713134766,296.3280029296875 67.04399871826172,197.5570068359375 C51.874000549316406,191.45700073242188 67.2229995727539,282.1109924316406 -127.37699890136719,211.94500732421875 C-158.52999877929688,200.71200561523438 -143.54400634765625,19.225000381469727 -152.81900024414062,4.357999801635742 C-158.15899658203125,-4.202000141143799 -71.63700103759766,-57.28200149536133 -69.29100036621094,-59.84600067138672 C-66.82099914550781,-62.54600143432617 -59.933998107910156,-60.819000244140625 -50.209999084472656,-55.68600082397461 C-34.599998474121094,-47.44599914550781 -11.701000213623047,-30.405000686645508 12.008999824523926,-8.685999870300293 C15.939000129699707,-5.085999965667725 19.73900032043457,-1.496000051498413 23.378999710083008,2.053999900817871 C23.39900016784668,2.0739998817443848 23.420000076293945,2.0940001010894775 23.43000030517578,2.1040000915527344 C46.15999984741211,24.253999710083008 151.7689971923828,70.02300262451172 157.56900024414062,82.40299987792969z"></path>
                </g>
            </g>
        </g>
        <g id="__lottie_element_52">
            <g
                transform="matrix(0.4439724087715149,0.021650303155183792,-0.021650303155183792,0.4439724087715149,30.68996810913086,231.11654663085938)"
                opacity="1" style="display: block;">
                <g opacity="1" transform="matrix(1,0,0,1,75.2249984741211,69.79000091552734)">
                    <path fill="rgb(17,44,65)" fill-opacity="1"
                        d=" M157.56900024414062,82.40299987792969 C153.37899780273438,85.84300231933594 104.28299713134766,296.3280029296875 67.04399871826172,197.5570068359375 C51.874000549316406,191.45700073242188 67.2229995727539,282.1109924316406 -127.37699890136719,211.94500732421875 C-158.52999877929688,200.71200561523438 -143.54400634765625,19.225000381469727 -152.81900024414062,4.357999801635742 C-158.15899658203125,-4.202000141143799 -71.63700103759766,-57.28200149536133 -69.29100036621094,-59.84600067138672 C-66.82099914550781,-62.54600143432617 -59.933998107910156,-60.819000244140625 -50.209999084472656,-55.68600082397461 C-34.599998474121094,-47.44599914550781 -11.701000213623047,-30.405000686645508 12.008999824523926,-8.685999870300293 C15.939000129699707,-5.085999965667725 19.73900032043457,-1.496000051498413 23.378999710083008,2.053999900817871 C23.39900016784668,2.0739998817443848 23.420000076293945,2.0940001010894775 23.43000030517578,2.1040000915527344 C46.15999984741211,24.253999710083008 151.7689971923828,70.02300262451172 157.56900024414062,82.40299987792969z"></path>
                    <path stroke-linecap="butt" stroke-linejoin="miter" fill-opacity="0"
                        stroke-miterlimit="10" stroke="rgb(17,44,65)" stroke-opacity="1"
                        stroke-width="2"
                        d=" M157.56900024414062,82.40299987792969 C153.37899780273438,85.84300231933594 104.28299713134766,296.3280029296875 67.04399871826172,197.5570068359375 C51.874000549316406,191.45700073242188 67.2229995727539,282.1109924316406 -127.37699890136719,211.94500732421875 C-158.52999877929688,200.71200561523438 -143.54400634765625,19.225000381469727 -152.81900024414062,4.357999801635742 C-158.15899658203125,-4.202000141143799 -71.63700103759766,-57.28200149536133 -69.29100036621094,-59.84600067138672 C-66.82099914550781,-62.54600143432617 -59.933998107910156,-60.819000244140625 -50.209999084472656,-55.68600082397461 C-34.599998474121094,-47.44599914550781 -11.701000213623047,-30.405000686645508 12.008999824523926,-8.685999870300293 C15.939000129699707,-5.085999965667725 19.73900032043457,-1.496000051498413 23.378999710083008,2.053999900817871 C23.39900016784668,2.0739998817443848 23.420000076293945,2.0940001010894775 23.43000030517578,2.1040000915527344 C46.15999984741211,24.253999710083008 151.7689971923828,70.02300262451172 157.56900024414062,82.40299987792969z"></path>
                </g>
            </g>
        </g>
        <mask id="__lottie_element_52_1" mask-type="alpha">
            <use xlink:href="#__lottie_element_52"></use>
        </mask>
        <mask id="__lottie_element_33_1" mask-type="alpha">
            <use xlink:href="#__lottie_element_33"></use>
        </mask>
    </defs>
    <g clip-path="url(#__lottie_element_2)">
        <g
            transform="matrix(0.4945000112056732,0,0,0.44449999928474426,194.71337890625,363.5677185058594)"
            opacity="1" style="display: block;">
            <g opacity="1" transform="matrix(1,0,0,1,194.54800415039062,33.04899978637695)">
                <path fill="rgb(203,200,255)" fill-opacity="1"
                    d=" M194.29800415039062,0 C194.29800415039062,18.114999771118164 107.30799865722656,32.79899978637695 0,32.79899978637695 C-107.30799865722656,32.79899978637695 -194.29800415039062,18.114999771118164 -194.29800415039062,0 C-194.29800415039062,-18.114999771118164 -107.30799865722656,-32.79899978637695 0,-32.79899978637695 C107.30799865722656,-32.79899978637695 194.29800415039062,-18.114999771118164 194.29800415039062,0z"></path>
            </g>
        </g>
        <g
            transform="matrix(0.4439724087715149,0.021650303155183792,-0.021650303155183792,0.4439724087715149,28.28237533569336,182.9311981201172)"
            opacity="1" style="display: block;">
            <g opacity="1" transform="matrix(1,0,0,1,339.5249938964844,138.48500061035156)">
                <path fill="rgb(255,169,220)" fill-opacity="1"
                    d=" M172.4949951171875,104.9749984741211 C179.4949951171875,105.15499877929688 185.7050018310547,106.69499969482422 190.7050018310547,109.42500305175781 C196.81500244140625,112.74500274658203 208.7989959716797,114.99299621582031 210.47900390625,121.50299835205078 C211.218994140625,124.29299926757812 209.98300170898438,126.33699798583984 209.68299865722656,129.63699340820312 C255.1929931640625,108.45700073242188 317.6449890136719,48.665000915527344 331.6050109863281,14.295000076293945 C332.885009765625,11.164999961853027 333.69500732421875,8.274999618530273 334.0050048828125,5.684999942779541 C334.5249938964844,1.3049999475479126 333.1050109863281,-3.0250000953674316 329.5450134277344,-7.684999942779541 C292.9849853515625,-55.525001525878906 171.9149932861328,-109.69499969482422 80.43499755859375,-125.6449966430664 C73.61499786376953,-126.83499908447266 66.96499633789062,-127.81500244140625 60.525001525878906,-128.55499267578125 C51.35499954223633,-129.61500549316406 42.28499984741211,-130.72500610351562 33.244998931884766,-131.44500732421875 C33.244998931884766,-131.44500732421875 33.23500061035156,-131.44500732421875 33.23500061035156,-131.44500732421875 C33.20500183105469,-131.44500732421875 33.185001373291016,-131.44500732421875 33.154998779296875,-131.4550018310547 C33.03499984741211,-131.46499633789062 32.904998779296875,-131.47500610351562 32.78499984741211,-131.47500610351562 C32.775001525878906,-131.48500061035156 32.76499938964844,-131.48500061035156 32.755001068115234,-131.48500061035156 C13.664999961853027,-133.0050048828125 -5.144999980926514,-133.48500061035156 -23.545000076293945,-133.09500122070312 C-27.7549991607666,-133.0050048828125 -31.934999465942383,-132.86500549316406 -36.10499954223633,-132.68499755859375 C-114.08499908447266,-129.3350067138672 -184.0850067138672,-110.57499694824219 -236.34500122070312,-88.70500183105469 C-290.2550048828125,-66.13500213623047 -325.2850036621094,-40.244998931884766 -330.67498779296875,-24.53499984741211 C-334.5249938964844,-13.324999809265137 -318.32501220703125,11.0649995803833 -295.0050048828125,36.39500045776367 C-266.4150085449219,67.43499755859375 -227.11500549316406,99.875 -200.85499572753906,111.16500091552734 C-200.85499572753906,111.16500091552734 -198.3249969482422,108.23500061035156 -194.1649932861328,104.1050033569336 C-191.26499938964844,101.24500274658203 -187.5749969482422,97.79499816894531 -183.38499450683594,94.3550033569336 C-178.93499755859375,90.69499969482422 -173.9149932861328,87.03500366210938 -168.7050018310547,84.09500122070312 C-168.7050018310547,84.09500122070312 -90.26399993896484,87.6259994506836 -2.2079999446868896,90.99600219726562 C85.8479995727539,94.36599731445312 172.4949951171875,104.9749984741211 172.4949951171875,104.9749984741211z"></path>
            </g>
            <g opacity="1" transform="matrix(1,0,0,1,523.1649780273438,88.73500061035156)">
                <path fill="rgb(255,144,216)" fill-opacity="1"
                    d=" M150.36500549316406,55.435001373291016 C150.05499267578125,58.025001525878906 149.2449951171875,60.915000915527344 147.96499633789062,64.04499816894531 C145.14500427246094,69.80500030517578 141.44500732421875,75.90499877929688 137.3350067138672,81.73500061035156 C138.19500732421875,77.32499694824219 141.34800720214844,68.66000366210938 138.76600646972656,66.0999984741211 C62.5359992980957,-9.505999565124512 -38.71500015258789,-57.69499969482422 -128.2949981689453,-77.28500366210938 C-135.84500122070312,-78.94499969482422 -143.35499572753906,-80.42500305175781 -150.85499572753906,-81.7249984741211 C-150.86500549316406,-81.73500061035156 -150.875,-81.73500061035156 -150.88499450683594,-81.73500061035156 C-150.7550048828125,-81.7249984741211 -150.61500549316406,-81.71499633789062 -150.48500061035156,-81.70500183105469 C-150.4550018310547,-81.69499969482422 -150.43499755859375,-81.69499969482422 -150.40499877929688,-81.69499969482422 C-150.40499877929688,-81.69499969482422 -150.39500427246094,-81.69499969482422 -150.39500427246094,-81.69499969482422 C-141.35499572753906,-80.9749984741211 -132.26499938964844,-80.01499938964844 -123.11499786376953,-78.80500030517578 C-116.51499938964844,-77.93499755859375 -109.875,-76.9749984741211 -103.20500183105469,-75.8949966430664 C-11.725000381469727,-59.94499969482422 109.34500122070312,-5.775000095367432 145.90499877929688,42.064998626708984 C149.46499633789062,46.724998474121094 150.88499450683594,51.05500030517578 150.36500549316406,55.435001373291016z"></path>
            </g>
            <g opacity="1" transform="matrix(1,0,0,1,339.5249938964844,138.48500061035156)">
                <path stroke-linecap="round" stroke-linejoin="round" fill-opacity="0"
                    stroke="rgb(17,44,65)" stroke-opacity="1" stroke-width="2"
                    d=" M172.4949951171875,104.9749984741211 C179.4949951171875,105.15499877929688 185.7050018310547,106.69499969482422 190.7050018310547,109.42500305175781 C196.81500244140625,112.74500274658203 208,115.61699676513672 209.67999267578125,122.12699890136719 C210.4199981689453,124.91699981689453 209.98300170898438,126.33599853515625 209.68299865722656,129.63600158691406 C255.1929931640625,108.45600128173828 317.6449890136719,48.665000915527344 331.6050109863281,14.295000076293945 C332.885009765625,11.164999961853027 333.69500732421875,8.274999618530273 334.0050048828125,5.684999942779541 C334.5249938964844,1.3049999475479126 333.1050109863281,-3.0250000953674316 329.5450134277344,-7.684999942779541 C292.9849853515625,-55.525001525878906 171.9149932861328,-109.69499969482422 80.43499755859375,-125.6449966430664 C73.61499786376953,-126.83499908447266 66.96499633789062,-127.81500244140625 60.525001525878906,-128.55499267578125 C51.35499954223633,-129.61500549316406 42.28499984741211,-130.72500610351562 33.244998931884766,-131.44500732421875 C33.244998931884766,-131.44500732421875 33.23500061035156,-131.44500732421875 33.23500061035156,-131.44500732421875 C33.20500183105469,-131.44500732421875 33.185001373291016,-131.44500732421875 33.154998779296875,-131.4550018310547 C33.03499984741211,-131.46499633789062 32.904998779296875,-131.47500610351562 32.78499984741211,-131.47500610351562 C32.775001525878906,-131.48500061035156 32.76499938964844,-131.48500061035156 32.755001068115234,-131.48500061035156 C13.664999961853027,-133.0050048828125 -5.144999980926514,-133.48500061035156 -23.545000076293945,-133.09500122070312 C-27.7549991607666,-133.0050048828125 -31.934999465942383,-132.86500549316406 -36.10499954223633,-132.68499755859375 C-114.08499908447266,-129.3350067138672 -184.0850067138672,-110.57499694824219 -236.34500122070312,-88.70500183105469 C-290.2550048828125,-66.13500213623047 -325.2850036621094,-40.244998931884766 -330.67498779296875,-24.53499984741211 C-334.5249938964844,-13.324999809265137 -318.32501220703125,11.0649995803833 -295.0050048828125,36.39500045776367 C-266.4150085449219,67.43499755859375 -227.11500549316406,99.875 -200.85499572753906,111.16500091552734 C-200.85499572753906,111.16500091552734 -198.3249969482422,108.23500061035156 -194.1649932861328,104.1050033569336 C-191.26499938964844,101.24500274658203 -187.5749969482422,97.79499816894531 -183.38499450683594,94.3550033569336 C-178.93499755859375,90.69499969482422 -173.9149932861328,87.03500366210938 -168.7050018310547,84.09500122070312 C-168.7050018310547,84.09500122070312 -90.48999786376953,82.56900024414062 -2.434000015258789,85.93900299072266 C85.62200164794922,89.30899810791016 172.4949951171875,104.9749984741211 172.4949951171875,104.9749984741211z"></path>
            </g>
        </g>
        <g
            transform="matrix(0.4439724087715149,0.021650303155183792,-0.021650303155183792,0.4439724087715149,258.6303405761719,252.5340118408203)"
            opacity="1" style="display: block;">
            <g opacity="1" transform="matrix(1,0,0,1,72.91000366210938,68.33000183105469)">
                <path fill="rgb(17,44,65)" fill-opacity="1"
                    d=" M62.349998474121094,-46.119998931884766 C53.810001373291016,-31.290000915527344 33.61000061035156,-8.0600004196167 7.78000020980835,15.619999885559082 C-16.6299991607666,37.9900016784668 -40.209999084472656,55.38999938964844 -55.81999969482422,63.33000183105469 C-57.4900016784668,56.84000015258789 -61.77000045776367,51.77000045776367 -67.8499984741211,48.459999084472656 C-67.88999938964844,48.43000030517578 -67.91000366210938,48.41999816894531 -67.91000366210938,48.41999816894531 C-58.400001525878906,33.58000183105469 -39.349998474121094,12.100000381469727 -15.5,-9.770000457763672 C9.800000190734863,-32.959999084472656 34.20000076293945,-50.79999923706055 49.77000045776367,-58.310001373291016 C49.77000045776367,-58.310001373291016 49.779998779296875,-58.310001373291016 49.779998779296875,-58.310001373291016 C57.88999938964844,-62.220001220703125 63.599998474121094,-63.33000183105469 65.80000305175781,-60.93000030517578 C67.91000366210938,-58.630001068115234 66.52999877929688,-53.380001068115234 62.349998474121094,-46.119998931884766z"></path>
                <path stroke-linecap="butt" stroke-linejoin="miter" fill-opacity="0"
                    stroke-miterlimit="10" stroke="rgb(17,44,65)" stroke-opacity="1"
                    stroke-width="2"
                    d=" M62.349998474121094,-46.119998931884766 C53.810001373291016,-31.290000915527344 33.61000061035156,-8.0600004196167 7.78000020980835,15.619999885559082 C-16.6299991607666,37.9900016784668 -40.209999084472656,55.38999938964844 -55.81999969482422,63.33000183105469 C-57.4900016784668,56.84000015258789 -61.77000045776367,51.77000045776367 -67.8499984741211,48.459999084472656 C-67.88999938964844,48.43000030517578 -67.91000366210938,48.41999816894531 -67.91000366210938,48.41999816894531 C-58.400001525878906,33.58000183105469 -39.349998474121094,12.100000381469727 -15.5,-9.770000457763672 C9.800000190734863,-32.959999084472656 34.20000076293945,-50.79999923706055 49.77000045776367,-58.310001373291016 C49.77000045776367,-58.310001373291016 49.779998779296875,-58.310001373291016 49.779998779296875,-58.310001373291016 C57.88999938964844,-62.220001220703125 63.599998474121094,-63.33000183105469 65.80000305175781,-60.93000030517578 C67.91000366210938,-58.630001068115234 66.52999877929688,-53.380001068115234 62.349998474121094,-46.119998931884766z"></path>
            </g>
        </g>
        <g
            transform="matrix(0.4439724087715149,0.021650303155183792,-0.021650303155183792,0.4439724087715149,30.68996810913086,231.11654663085938)"
            opacity="1" style="display: block;">
            <g opacity="1" transform="matrix(1,0,0,1,75.2249984741211,69.79000091552734)">
                <path fill="rgb(17,44,65)" fill-opacity="1"
                    d=" M70.2249984741211,55.040000915527344 C66.03500366210938,58.47999954223633 62.345001220703125,61.93000030517578 59.44499969482422,64.79000091552734 C44.275001525878906,58.689998626708984 17.7549991607666,39.7599983215332 -9.845000267028809,14.460000038146973 C-34.255001068115234,-7.920000076293945 -53.6349983215332,-29.889999389648438 -62.904998779296875,-44.7599983215332 C-68.24500274658203,-53.31999969482422 -70.2249984741211,-59.529998779296875 -67.875,-62.09000015258789 C-65.40499877929688,-64.79000091552734 -58.51499938964844,-63.06999969482422 -48.79499816894531,-57.93000030517578 C-33.185001373291016,-49.689998626708984 -10.274999618530273,-32.65999984741211 13.425000190734863,-10.930000305175781 C17.354999542236328,-7.329999923706055 21.155000686645508,-3.740000009536743 24.795000076293945,-0.1899999976158142 C24.815000534057617,-0.17000000178813934 24.834999084472656,-0.15000000596046448 24.844999313354492,-0.14000000059604645 C47.57500076293945,22.010000228881836 64.42500305175781,42.65999984741211 70.2249984741211,55.040000915527344z"></path>
                <path stroke-linecap="butt" stroke-linejoin="miter" fill-opacity="0"
                    stroke-miterlimit="10" stroke="rgb(17,44,65)" stroke-opacity="1"
                    stroke-width="2"
                    d=" M70.2249984741211,55.040000915527344 C66.03500366210938,58.47999954223633 62.345001220703125,61.93000030517578 59.44499969482422,64.79000091552734 C44.275001525878906,58.689998626708984 17.7549991607666,39.7599983215332 -9.845000267028809,14.460000038146973 C-34.255001068115234,-7.920000076293945 -53.6349983215332,-29.889999389648438 -62.904998779296875,-44.7599983215332 C-68.24500274658203,-53.31999969482422 -70.2249984741211,-59.529998779296875 -67.875,-62.09000015258789 C-65.40499877929688,-64.79000091552734 -58.51499938964844,-63.06999969482422 -48.79499816894531,-57.93000030517578 C-33.185001373291016,-49.689998626708984 -10.274999618530273,-32.65999984741211 13.425000190734863,-10.930000305175781 C17.354999542236328,-7.329999923706055 21.155000686645508,-3.740000009536743 24.795000076293945,-0.1899999976158142 C24.815000534057617,-0.17000000178813934 24.834999084472656,-0.15000000596046448 24.844999313354492,-0.14000000059604645 C47.57500076293945,22.010000228881836 64.42500305175781,42.65999984741211 70.2249984741211,55.040000915527344z"></path>
            </g>
        </g>
        <g
            transform="matrix(0.4439724087715149,0.021650303155183792,-0.021650303155183792,0.4439724087715149,160.60833740234375,189.64930725097656)"
            opacity="1" style="display: block;">
            <g opacity="1" transform="matrix(1,0,0,1,50.94499969482422,21.334999084472656)">
                <path fill="rgb(17,44,65)" fill-opacity="1"
                    d=" M45.814998626708984,-4.295000076293945 C45.28499984741211,7.605000019073486 24.424999237060547,16.334999084472656 -0.7649999856948853,15.194999694824219 C-25.96500015258789,14.055000305175781 -45.94499969482422,3.4749999046325684 -45.404998779296875,-8.425000190734863 C-45.29499816894531,-10.954999923706055 -44.255001068115234,-13.354999542236328 -42.45500183105469,-15.53499984741211 C-38.28499984741211,-15.71500015258789 -34.10499954223633,-15.854999542236328 -29.895000457763672,-15.944999694824219 C-11.335000038146973,-16.334999084472656 7.635000228881836,-15.845000267028809 26.885000228881836,-14.295000076293945 C26.885000228881836,-14.295000076293945 26.895000457763672,-14.295000076293945 26.895000457763672,-14.295000076293945 C32.224998474121094,-13.755000114440918 37.57500076293945,-13.135000228881836 42.94499969482422,-12.425000190734863 C44.92499923706055,-9.864999771118164 45.94499969482422,-7.114999771118164 45.814998626708984,-4.295000076293945z"></path>
                <path stroke-linecap="round" stroke-linejoin="round" fill-opacity="0"
                    stroke="rgb(17,44,65)" stroke-opacity="1" stroke-width="2"
                    d=" M45.814998626708984,-4.295000076293945 C45.28499984741211,7.605000019073486 24.424999237060547,16.334999084472656 -0.7649999856948853,15.194999694824219 C-25.96500015258789,14.055000305175781 -45.94499969482422,3.4749999046325684 -45.404998779296875,-8.425000190734863 C-45.29499816894531,-10.954999923706055 -44.255001068115234,-13.354999542236328 -42.45500183105469,-15.53499984741211 C-38.28499984741211,-15.71500015258789 -34.10499954223633,-15.854999542236328 -29.895000457763672,-15.944999694824219 C-11.335000038146973,-16.334999084472656 7.635000228881836,-15.845000267028809 26.885000228881836,-14.295000076293945 C26.885000228881836,-14.295000076293945 26.895000457763672,-14.295000076293945 26.895000457763672,-14.295000076293945 C32.224998474121094,-13.755000114440918 37.57500076293945,-13.135000228881836 42.94499969482422,-12.425000190734863 C44.92499923706055,-9.864999771118164 45.94499969482422,-7.114999771118164 45.814998626708984,-4.295000076293945z"></path>
            </g>
        </g>
        <g
            transform="matrix(0.44422921538352966,0.015512825921177864,-0.015512825921177864,0.44422921538352966,93.66777801513672,276.2004089355469)"
            opacity="1" style="display: block;">
            <g opacity="1" transform="matrix(1,0,0,1,189.5590057373047,66.64299774169922)">
                <path fill="rgb(255,169,220)" fill-opacity="1"
                    d=" M184.5590057373047,-55.79899978637695 C152.07899475097656,14.17199993133545 78.20099639892578,61.643001556396484 -5.943999767303467,58.5890007019043 C-87.0780029296875,55.64500045776367 -155.28900146484375,6.539999961853027 -184.5590057373047,-61.643001556396484"></path>
            </g>
            <g opacity="1" transform="matrix(1,0,0,1,229.51600646972656,73.20899963378906)">
                <path fill="rgb(255,144,216)" fill-opacity="1"
                    d=" M144.85699462890625,-63.02199935913086 C144.85699462890625,-63.02199935913086 137.66200256347656,-48.92599868774414 128.82200622558594,-35.98699951171875 C127.9020004272461,-34.659000396728516 126.99500274658203,-33.345001220703125 126.0479965209961,-32.042999267578125 C126.0479965209961,-32.042999267578125 125.58100128173828,-31.621999740600586 125.58100128173828,-31.621999740600586 C122.22100067138672,-27.06599998474121 118.7229995727539,-22.673999786376953 115.08699798583984,-18.417999267578125 C115.08699798583984,-18.417999267578125 112.75399780273438,-15.798999786376953 112.75399780273438,-15.798999786376953 C68.1719970703125,34.38399887084961 -0.5839999914169312,61.117000579833984 -72.03299713134766,49.055999755859375 C-98.62200164794922,44.56399917602539 -123.16799926757812,35.119998931884766 -144.85699462890625,21.81800079345703 C-61.01599884033203,63.430999755859375 37.56100082397461,35.58700180053711 105.89600372314453,-45.553001403808594 C111.18699645996094,-51.83700180053711 136.64700317382812,-63.430999755859375 144.85699462890625,-63.02199935913086z"></path>
            </g>
            <g opacity="1" transform="matrix(1,0,0,1,189.5590057373047,66.64299774169922)">
                <path stroke-linecap="round" stroke-linejoin="round" fill-opacity="0"
                    stroke="rgb(17,44,65)" stroke-opacity="1" stroke-width="2"
                    d=" M184.5590057373047,-55.79899978637695 C152.07899475097656,14.17199993133545 78.20099639892578,61.643001556396484 -5.943999767303467,58.5890007019043 C-87.0780029296875,55.64500045776367 -155.28900146484375,6.539999961853027 -184.5590057373047,-61.643001556396484"></path>
            </g>
        </g>
        <g
            transform="matrix(0.44410303235054016,0.018781596794724464,-0.018781596794724464,0.44410303235054016,116.82330322265625,88.74583435058594)"
            opacity="1" style="display: block;">
            <g opacity="1" transform="matrix(1,0,0,1,39.53099822998047,39.53099822998047)">
                <path fill="rgb(255,214,192)" fill-opacity="1"
                    d=" M-32.69599914550781,-3.322000026702881 C-34.529998779296875,14.736000061035156 -21.378999710083008,30.863000869750977 -3.321000099182129,32.696998596191406 C14.737000465393066,34.53099822998047 30.86199951171875,21.3799991607666 32.69599914550781,3.322000026702881 C34.529998779296875,-14.736000061035156 21.378999710083008,-30.863000869750977 3.321000099182129,-32.696998596191406 C-14.737000465393066,-34.53099822998047 -30.86199951171875,-21.3799991607666 -32.69599914550781,-3.322000026702881z"></path>
            </g>
            <g opacity="1" transform="matrix(1,0,0,1,39.2599983215332,52.16400146484375)">
                <path fill="rgb(245,185,171)" fill-opacity="1"
                    d=" M-3.053999900817871,20.062999725341797 C-20.525999069213867,18.288000106811523 -33.40599822998047,3.134000062942505 -32.55500030517578,-14.220000267028809 C-28.9060001373291,-1.7730000019073486 -18.033000946044922,7.835000038146973 -4.336999893188477,9.237000465393066 C13.720000267028809,11.067999839782715 29.85300064086914,-2.0899999141693115 31.684999465942383,-20.14699935913086 C31.740999221801758,-20.732999801635742 31.783000946044922,-21.31399917602539 31.80900001525879,-21.893999099731445 C32.97999954223633,-17.92300033569336 33.40599822998047,-13.673999786376953 32.96200180053711,-9.3100004196167 C31.131000518798828,8.748000144958496 15.003999710083008,21.893999099731445 -3.053999900817871,20.062999725341797z"></path>
            </g>
            <g opacity="1" transform="matrix(1,0,0,1,38.91999816894531,39.09700012207031)">
                <path stroke-linecap="round" stroke-linejoin="round" fill-opacity="0"
                    stroke="rgb(17,44,65)" stroke-opacity="1" stroke-width="2"
                    d=" M33.46699905395508,1.2719999551773071 C33.91999816894531,-15.758999824523926 21.158000946044922,-30.51300048828125 3.933000087738037,-32.26300048828125 C-14.125,-34.09700012207031 -30.250999450683594,-20.94499969482422 -32.084999084472656,-2.888000011444092 C-33.91999816894531,15.170000076293945 -20.76799964904785,31.29599952697754 -2.7100000381469727,33.130001068115234 C6.804999828338623,34.09700012207031 15.784000396728516,30.902000427246094 22.417999267578125,25.02199935913086"></path>
            </g>
            <g opacity="1" transform="matrix(1,0,0,1,43.76900100708008,35.154998779296875)">
                <path stroke-linecap="round" stroke-linejoin="round" fill-opacity="0"
                    stroke="rgb(17,44,65)" stroke-opacity="1" stroke-width="2"
                    d=" M10.67199993133545,14.388999938964844 C15.291999816894531,4.395999908447266 11.156000137329102,-7.348999977111816 1.4329999685287476,-11.845000267028809 C-4.070000171661377,-14.388999938964844 -10.184000015258789,-14.065999984741211 -15.291999816894531,-11.494000434875488"></path>
            </g>
        </g>
        <g
            transform="matrix(0.4318281412124634,-0.10537881404161453,0.10537881404161453,0.4318281412124634,116.37362670898438,116.6090087890625)"
            opacity="1" style="display: block;">
            <g opacity="1" transform="matrix(1,0,0,1,18.27199935913086,18.273000717163086)">
                <path fill="rgb(255,255,255)" fill-opacity="1"
                    d=" M13.229000091552734,0.07900000363588333 C13.1850004196167,7.385000228881836 7.2270002365112305,13.272000312805176 -0.07900000363588333,13.227999687194824 C-7.385000228881836,13.184000015258789 -13.272000312805176,7.224999904632568 -13.227999687194824,-0.07999999821186066 C-13.184000015258789,-7.386000156402588 -7.2270002365112305,-13.27299976348877 0.07900000363588333,-13.229000091552734 C7.385000228881836,-13.1850004196167 13.27299976348877,-7.2270002365112305 13.229000091552734,0.07900000363588333z"></path>
                <path stroke-linecap="round" stroke-linejoin="round" fill-opacity="0"
                    stroke="rgb(17,44,65)" stroke-opacity="1" stroke-width="2"
                    d=" M13.229000091552734,0.07900000363588333 C13.1850004196167,7.385000228881836 7.2270002365112305,13.272000312805176 -0.07900000363588333,13.227999687194824 C-7.385000228881836,13.184000015258789 -13.272000312805176,7.224999904632568 -13.227999687194824,-0.07999999821186066 C-13.184000015258789,-7.386000156402588 -7.2270002365112305,-13.27299976348877 0.07900000363588333,-13.229000091552734 C7.385000228881836,-13.1850004196167 13.27299976348877,-7.2270002365112305 13.229000091552734,0.07900000363588333z"></path>
            </g>
        </g>
        <g
            transform="matrix(0.4444417655467987,0.0071943835355341434,-0.0071943835355341434,0.4444417655467987,121.43258666992188,69.19927978515625)"
            opacity="1" style="display: block;">
            <g opacity="1" transform="matrix(1,0,0,1,139.81199645996094,139.1959991455078)">
                <path fill="rgb(255,214,192)" fill-opacity="1"
                    d=" M97.89800262451172,65.71499633789062 C61.604000091552734,119.78299713134766 -11.64799976348877,134.1909942626953 -65.71600341796875,97.89700317382812 C-119.78299713134766,61.604000091552734 -134.19200134277344,-11.64799976348877 -97.89800262451172,-65.71499633789062 C-61.604000091552734,-119.78299713134766 11.64799976348877,-134.1909942626953 65.71600341796875,-97.89800262451172 C119.78299713134766,-61.604000091552734 134.19200134277344,11.647000312805176 97.89800262451172,65.71499633789062z"></path>
            </g>
            <g opacity="1" transform="matrix(1,0,0,1,163.0189971923828,157.01800537109375)">
                <path fill="rgb(245,185,171)" fill-opacity="1"
                    d=" M41.888999938964844,-115.7249984741211 C41.558998107910156,-115.9469985961914 41.22200012207031,-116.14800262451172 40.88999938964844,-116.36599731445312 C40.88999938964844,-116.36599731445312 26.506999969482422,-108.7249984741211 26.506999969482422,-108.7249984741211 C77.44599914550781,-74.31800079345703 92.05999755859375,-7.986000061035156 58.30799865722656,42.29499816894531 C24.4950008392334,92.66699981689453 -45.05699920654297,107.85399627685547 -96.22200012207031,73.50900268554688 C-101.3030014038086,70.0979995727539 -106.02899932861328,66.34400177001953 -110.36499786376953,62.29800033569336 C-104.26399993896484,68.87300109863281 -97.31700134277344,74.85299682617188 -89.54199981689453,80.0719985961914 C-35.4739990234375,116.36599731445312 37.7760009765625,101.95800018310547 74.06999969482422,47.888999938964844 C110.36399841308594,-6.178999900817871 95.95700073242188,-79.43099975585938 41.888999938964844,-115.7249984741211z"></path>
            </g>
            <g opacity="1" transform="matrix(1,0,0,1,139.19200134277344,139.1909942626953)">
                <path stroke-linecap="round" stroke-linejoin="round" fill-opacity="0"
                    stroke="rgb(17,44,65)" stroke-opacity="1" stroke-width="2"
                    d=" M97.89800262451172,65.71499633789062 C61.604000091552734,119.78299713134766 -11.64799976348877,134.1909942626953 -65.71600341796875,97.89700317382812 C-119.78299713134766,61.604000091552734 -134.19200134277344,-11.64799976348877 -97.89800262451172,-65.71499633789062 C-61.604000091552734,-119.78299713134766 11.64799976348877,-134.1909942626953 65.71600341796875,-97.89700317382812 C119.78299713134766,-61.604000091552734 134.19200134277344,11.647000312805176 97.89800262451172,65.71499633789062z"></path>
            </g>
        </g>
        <g
            transform="matrix(0.4444417655467987,0.0071943835355341434,-0.0071943835355341434,0.4444417655467987,146.92047119140625,61.9467887878418)"
            opacity="1" style="display: block;">
            <g opacity="1" transform="matrix(1,0,0,1,111.43399810791016,83.75499725341797)">
                <path fill="rgb(178,176,247)" fill-opacity="1"
                    d=" M82.12603759765625,-9.351240158081055 C77.7180404663086,-16.56723976135254 72.47904205322266,-23.4158878326416 66.43539428710938,-29.748239517211914 C60.87539291381836,-35.574241638183594 54.645389556884766,-40.95724105834961 47.767391204833984,-45.78023910522461 C7.336390972137451,-74.13224029541016 -43.70560836791992,-74.8825912475586 -80.95960998535156,-51.48624038696289 C-91.05760955810547,-45.14424133300781 -100.1602554321289,-37.04188919067383 -107.72795867919922,-27.206239700317383 C-109.25096130371094,-25.22723960876465 -107.6506118774414,-23.447240829467773 -105.70360565185547,-23.645240783691406 C-86.10260772705078,-25.63524055480957 -52.03860855102539,-20.34659194946289 -28.927608489990234,-13.027239799499512 C-13.5086088180542,-8.143239974975586 1.7753911018371582,-0.4838879406452179 16.84339141845703,8.62775993347168 C23.182390213012695,12.460760116577148 29.25339126586914,16.505760192871094 35.04039001464844,20.729759216308594 C40.09339141845703,10.673760414123535 42.796390533447266,0.12776000797748566 43.0883903503418,-9.960240364074707 C47.06639099121094,1.2687599658966064 47.94539260864258,16.02075958251953 46.50638961791992,29.701759338378906 C65.06739044189453,45.181758880615234 80.9339828491211,63.15046310424805 91.6243896484375,80.83576202392578 C92.50839233398438,82.29776000976562 94.56039428710938,82.62776184082031 95.1973876953125,80.37275695800781 C103.61539459228516,50.578758239746094 98.82038879394531,17.977760314941406 82.12603759765625,-9.351240158081055z"></path>
            </g>
            <g opacity="1" transform="matrix(1,0,0,1,178.24200439453125,91.31300354003906)">
                <path fill="rgb(151,151,247)" fill-opacity="1"
                    d=" M25.14103889465332,73.81475830078125 C21.085039138793945,67.03675842285156 11.867390632629395,54.781761169433594 6.581390857696533,48.194759368896484 C14.017391204833984,21.58176040649414 11.209248542785645,-17.670745849609375 -14.668608665466309,-44.76523971557617 C-19.646608352661133,-49.97024154663086 -25.225961685180664,-54.7958869934082 -31.375608444213867,-59.108238220214844 C-35.802608489990234,-62.21324157714844 -40.38160705566406,-64.96024322509766 -45.05860900878906,-67.32624053955078 C-36.074607849121094,-63.80923843383789 -27.337312698364258,-59.15688705444336 -19.039960861206055,-53.33824157714844 C-12.163961410522461,-48.51723861694336 -5.9329047203063965,-43.13665008544922 -0.36896100640296936,-37.30859375 C28.71103858947754,-6.828592300415039 39.461116790771484,35.749027252197266 28.21639060974121,73.4154052734375 C27.794391632080078,74.81940460205078 25.890743255615234,75.0704116821289 25.14103889465332,73.81475830078125z"></path>
            </g>
            <g opacity="1" transform="matrix(1,0,0,1,111.43399810791016,83.75499725341797)">
                <path stroke-linecap="round" stroke-linejoin="round" fill-opacity="0"
                    stroke="rgb(17,44,65)" stroke-opacity="1" stroke-width="2"
                    d=" M82.12603759765625,-9.351240158081055 C77.7180404663086,-16.56723976135254 72.47904205322266,-23.4158878326416 66.43539428710938,-29.748239517211914 C60.87539291381836,-35.574241638183594 54.645389556884766,-40.95724105834961 47.767391204833984,-45.78023910522461 C7.336390972137451,-74.13224029541016 -43.70560836791992,-74.8825912475586 -80.95960998535156,-51.48624038696289 C-91.05760955810547,-45.14424133300781 -100.1602554321289,-37.04188919067383 -107.72795867919922,-27.206239700317383 C-109.25096130371094,-25.22723960876465 -107.6506118774414,-23.447240829467773 -105.70360565185547,-23.645240783691406 C-86.10260772705078,-25.63524055480957 -52.03860855102539,-20.34659194946289 -28.927608489990234,-13.027239799499512 C-13.5086088180542,-8.143239974975586 1.7753911018371582,-0.4838879406452179 16.84339141845703,8.62775993347168 C23.182390213012695,12.460760116577148 29.25339126586914,16.505760192871094 35.04039001464844,20.729759216308594 C40.09339141845703,10.673760414123535 42.796390533447266,0.12776000797748566 43.0883903503418,-9.960240364074707 C47.06639099121094,1.2687599658966064 47.94539260864258,16.02075958251953 46.50638961791992,29.701759338378906 C65.06739044189453,45.181758880615234 80.9339828491211,63.15046310424805 91.6243896484375,80.83576202392578 C92.50839233398438,82.29776000976562 94.56039428710938,82.62776184082031 95.1973876953125,80.37275695800781 C103.61539459228516,50.578758239746094 98.82038879394531,17.977760314941406 82.12603759765625,-9.351240158081055z"></path>
            </g>
        </g>
        <g
            transform="matrix(0.4444419741630554,0.007194387726485729,-0.007194387726485729,0.4444419741630554,142.27749633789062,93.64443969726562)"
            opacity="1" style="display: block;">
            <g opacity="1" transform="matrix(1,0,0,1,134.97999572753906,49.03900146484375)">
                <path fill="rgb(17,44,65)" fill-opacity="1"
                    d=" M1.9201136827468872,-5.019314765930176 C8.56311321258545,1.018684983253479 10.715113639831543,9.470685005187988 6.726113796234131,13.860685348510742 C2.7371137142181396,18.249685287475586 -5.8828864097595215,16.91268539428711 -12.525886535644531,10.87568473815918 C-19.168886184692383,4.8376851081848145 -21.32188606262207,-3.6163148880004883 -17.331886291503906,-8.004315376281738 C-13.341886520385742,-12.393315315246582 -4.722886562347412,-11.0573148727417 1.9201136827468872,-5.019314765930176z"></path>
            </g>
        </g>
        <g
            transform="matrix(0.4444419741630554,0.007194387726485729,-0.007194387726485729,0.4444419741630554,142.2781982421875,93.6444091796875)"
            opacity="1" style="display: block;">
            <g opacity="1" transform="matrix(1,0,0,1,114.0260009765625,108.46700286865234)">
                <path fill="rgb(255,166,224)" fill-opacity="1"
                    d=" M1.215000033378601,-9.131999969482422 C8.848999977111816,-8.116000175476074 14.493000030517578,-3.2039999961853027 13.821000099182129,1.840000033378601 C13.149999618530273,6.882999897003174 6.418000221252441,10.14799976348877 -1.215999960899353,9.131999969482422 C-8.848999977111816,8.116000175476074 -14.493000030517578,3.2039999961853027 -13.821999549865723,-1.840000033378601 C-13.151000022888184,-6.882999897003174 -6.419000148773193,-10.14799976348877 1.215000033378601,-9.131999969482422z"></path>
            </g>
        </g>
        <g
            transform="matrix(0.4444419741630554,0.007194387726485729,-0.007194387726485729,0.4444419741630554,142.2773895263672,93.64481353759766)"
            opacity="1" style="display: block;">
            <g opacity="1" transform="matrix(1,0,0,1,14.211000442504883,69.18900299072266)">
                <path fill="rgb(255,166,224)" fill-opacity="1"
                    d=" M5.908999919891357,-7.068999767303467 C0,-12.008000373840332 -7.435999870300293,-12.845999717712402 -10.699000358581543,-8.942000389099121 C-13.961999893188477,-5.039000034332275 -11.815999984741211,2.130000114440918 -5.9079999923706055,7.068999767303467 C0.0010000000474974513,12.008000373840332 7.435999870300293,12.847000122070312 10.699000358581543,8.942999839782715 C13.961999893188477,5.039000034332275 11.817999839782715,-2.130000114440918 5.908999919891357,-7.068999767303467z"></path>
            </g>
        </g>
        <g
            transform="matrix(0.4444419741630554,0.007194387726485729,-0.007194387726485729,0.4444419741630554,142.278076171875,93.64427185058594)"
            opacity="1" style="display: block;">
            <g opacity="1" transform="matrix(1,0,0,1,40.547000885009766,10.144000053405762)">
                <path fill="rgb(17,44,65)" fill-opacity="1"
                    d=" M0.5354756116867065,-4.2363715171813965 C0.43647560477256775,-4.2363715171813965 0.33747559785842896,-4.2353715896606445 0.23847559094429016,-4.234371662139893 C-8.030524253845215,-4.128371715545654 -14.67652416229248,0.38662829995155334 -14.606524467468262,5.849628448486328 C-14.537524223327637,11.247628211975098 -7.937524318695068,15.551628112792969 0.19547559320926666,15.551628112792969 C0.29447558522224426,15.551628112792969 0.39347559213638306,15.550628662109375 0.49247559905052185,15.549628257751465 C8.761475563049316,15.442627906799316 15.407475471496582,10.927628517150879 15.337475776672363,5.464628219604492 C15.268475532531738,0.06762830168008804 8.668475151062012,-4.2363715171813965 0.5354756116867065,-4.2363715171813965z"></path>
            </g>
        </g>
        <g
            transform="matrix(0.4444419741630554,0.007194387726485729,-0.007194387726485729,0.4444419741630554,142.27828979492188,93.64492797851562)"
            opacity="1" style="display: block;">
            <g opacity="1" transform="matrix(1,0,0,1,64.38700103759766,86.197998046875)">
                <path fill="rgb(17,44,65)" fill-opacity="1"
                    d=" M21.91200065612793,-1.0449999570846558 C14.687999725341797,11.380999565124512 2.1989998817443848,17.847999572753906 -7.793000221252441,13.651000022888184 C-17.78499984741211,9.454000473022461 -21.91200065612793,-3.990999937057495 -18.094999313354492,-17.849000930786133 C-18.094999313354492,-17.849000930786133 21.91200065612793,-1.0449999570846558 21.91200065612793,-1.0449999570846558z"></path>
                <path stroke-linecap="round" stroke-linejoin="round" fill-opacity="0"
                    stroke="rgb(17,44,65)" stroke-opacity="1" stroke-width="2"
                    d=" M21.91200065612793,-1.0449999570846558 C14.687999725341797,11.380999565124512 2.1989998817443848,17.847999572753906 -7.793000221252441,13.651000022888184 C-17.78499984741211,9.454000473022461 -21.91200065612793,-3.990999937057495 -18.094999313354492,-17.849000930786133 C-18.094999313354492,-17.849000930786133 21.91200065612793,-1.0449999570846558 21.91200065612793,-1.0449999570846558z"></path>
            </g>
        </g>
        <g
            transform="matrix(0.4444419741630554,0.007194387726485729,-0.007194387726485729,0.4444419741630554,142.27783203125,93.64494323730469)"
            opacity="1" style="display: block;">
            <g opacity="1" transform="matrix(1,0,0,1,61.016998291015625,96.3030014038086)">
                <path fill="rgb(255,166,224)" fill-opacity="1"
                    d=" M-11.130999565124512,-2.503000020980835 C-6.056000232696533,-5.659999847412109 1.343000054359436,-5.363999843597412 7.485000133514404,-1.2410000562667847 C9.053000450134277,-0.1889999955892563 10.420999526977539,1.034000039100647 11.572999954223633,2.369999885559082 C6.270999908447266,5.070000171661377 0.6069999933242798,5.659999847412109 -4.423999786376953,3.546999931335449 C-7.317999839782715,2.3310000896453857 -9.718999862670898,0.3400000035762787 -11.572999954223633,-2.2149999141693115 C-11.428000450134277,-2.313999891281128 -11.281000137329102,-2.4100000858306885 -11.130999565124512,-2.503000020980835z"></path>
                <path stroke-linecap="round" stroke-linejoin="round" fill-opacity="0"
                    stroke="rgb(17,44,65)" stroke-opacity="1" stroke-width="2"
                    d=" M-11.130999565124512,-2.503000020980835 C-6.056000232696533,-5.659999847412109 1.343000054359436,-5.363999843597412 7.485000133514404,-1.2410000562667847 C9.053000450134277,-0.1889999955892563 10.420999526977539,1.034000039100647 11.572999954223633,2.369999885559082 C6.270999908447266,5.070000171661377 0.6069999933242798,5.659999847412109 -4.423999786376953,3.546999931335449 C-7.317999839782715,2.3310000896453857 -9.718999862670898,0.3400000035762787 -11.572999954223633,-2.2149999141693115 C-11.428000450134277,-2.313999891281128 -11.281000137329102,-2.4100000858306885 -11.130999565124512,-2.503000020980835z"></path>
            </g>
        </g>
        <g
            transform="matrix(0.4390222728252411,0.06956775486469269,-0.06956775486469269,0.4390222728252411,220.53916931152344,134.41729736328125)"
            opacity="1" style="display: block;">
            <g opacity="1" transform="matrix(1,0,0,1,40.18000030517578,44.43299865722656)">
                <path fill="rgb(255,214,192)" fill-opacity="1"
                    d=" M29.131000518798828,19.554000854492188 C18.33099937438965,35.641998291015625 -3.4670000076293945,39.93000030517578 -19.55500030517578,29.1299991607666 C-35.643001556396484,18.33099937438965 -39.930999755859375,-3.4660000801086426 -29.131000518798828,-19.55500030517578 C-18.332000732421875,-35.643001556396484 3.4660000801086426,-39.93000030517578 19.55500030517578,-29.131000518798828 C35.643001556396484,-18.33099937438965 39.930999755859375,3.4660000801086426 29.131000518798828,19.554000854492188z"></path>
            </g>
            <g opacity="1" transform="matrix(1,0,0,1,41.9640007019043,56.858001708984375)">
                <path fill="rgb(245,185,171)" fill-opacity="1"
                    d=" M-36.71099853515625,-8.024999618530273 C-35.57500076293945,-5.534999847412109 -33.731998443603516,-2.9000000953674316 -31.959999084472656,-0.6639999747276306 C-19.9060001373291,14.515000343322754 2.617000102996826,16.53499984741211 17.78700065612793,4.48799991607666 C27.743000030517578,-3.4140000343322754 31.535999298095703,-15.118000030517578 30.055999755859375,-26.860000610351562 C36.71099853515625,-12.51200008392334 33.69300079345703,4.5229997634887695 20.75,14.805000305175781 C5.586999893188477,26.861000061035156 -16.489999771118164,24.33300018310547 -28.54400062561035,9.154000282287598 C-32.68899917602539,3.940000057220459 -35.94499969482422,-1.8519999980926514 -36.71099853515625,-8.024999618530273z"></path>
            </g>
            <g opacity="1" transform="matrix(1,0,0,1,42.680999755859375,44.68199920654297)">
                <path stroke-linecap="round" stroke-linejoin="round" fill-opacity="0"
                    stroke="rgb(17,44,65)" stroke-opacity="1" stroke-width="2"
                    d=" M-30.06999969482422,-21.952999114990234 C-18.834999084472656,-36.25600051879883 1.7059999704360962,-39.680999755859375 17.05299949645996,-29.378999710083008 C33.141998291015625,-18.579999923706055 37.42900085449219,3.2160000801086426 26.628999710083008,19.30500030517578 C15.829999923706055,35.393001556396484 -5.9670000076293945,39.680999755859375 -22.05500030517578,28.881000518798828 C-30.533000946044922,23.190000534057617 -35.986000061035156,13.505000114440918 -37.42900085449219,4.151000022888184"></path>
            </g>
            <g opacity="1" transform="matrix(1,0,0,1,40.00899887084961,34.064998626708984)">
                <path stroke-linecap="round" stroke-linejoin="round" fill-opacity="0"
                    stroke="rgb(17,44,65)" stroke-opacity="1" stroke-width="2"
                    d=" M-19.30900001525879,3.812999963760376 C-13.532999992370605,-6.422999858856201 -0.7770000100135803,-10.163999557495117 9.182000160217285,-4.545000076293945 C14.819999694824219,-1.3639999628067017 18.351999282836914,4.133999824523926 19.30900001525879,10.163999557495117"></path>
            </g>
        </g>
        <g
            transform="matrix(0.44233039021492004,-0.04386431723833084,0.04386431723833084,0.44233039021492004,217.08181762695312,162.65512084960938)"
            opacity="1" style="display: block;">
            <g opacity="1" transform="matrix(1,0,0,1,18.27199935913086,18.273000717163086)">
                <path fill="rgb(255,255,255)" fill-opacity="1"
                    d=" M13.229000091552734,0.07900000363588333 C13.1850004196167,7.385000228881836 7.22599983215332,13.272000312805176 -0.07999999821186066,13.227999687194824 C-7.386000156402588,13.184000015258789 -13.272000312805176,7.22599983215332 -13.227999687194824,-0.07999999821186066 C-13.184000015258789,-7.386000156402588 -7.22599983215332,-13.27299976348877 0.07999999821186066,-13.229000091552734 C7.386000156402588,-13.1850004196167 13.27299976348877,-7.2270002365112305 13.229000091552734,0.07900000363588333z"></path>
                <path stroke-linecap="round" stroke-linejoin="round" fill-opacity="0"
                    stroke="rgb(17,44,65)" stroke-opacity="1" stroke-width="2"
                    d=" M13.229000091552734,0.07900000363588333 C13.1850004196167,7.385000228881836 7.22599983215332,13.272000312805176 -0.07999999821186066,13.227999687194824 C-7.386000156402588,13.184000015258789 -13.272000312805176,7.22599983215332 -13.227999687194824,-0.07999999821186066 C-13.184000015258789,-7.386000156402588 -7.22599983215332,-13.27299976348877 0.07999999821186066,-13.229000091552734 C7.386000156402588,-13.1850004196167 13.27299976348877,-7.2270002365112305 13.229000091552734,0.07900000363588333z"></path>
            </g>
        </g>
        <g
            transform="matrix(0.9967913031578064,0.08004921674728394,-0.08004921674728394,0.9967913031578064,132.78749084472656,216.63607788085938)"
            opacity="1" style="display: block;">
            <g opacity="1" transform="matrix(1,0,0,1,18.125,-104.93800354003906)">
                <path fill="rgb(18,45,66)" fill-opacity="1"
                    d=" M0,-4.6875 C1.8971562385559082,-4.6875 3.4375,-2.587031364440918 3.4375,0 C3.4375,2.587031364440918 1.8971562385559082,4.6875 0,4.6875 C-1.8971562385559082,4.6875 -3.4375,2.587031364440918 -3.4375,0 C-3.4375,-2.587031364440918 -1.8971562385559082,-4.6875 0,-4.6875z"></path>
                <path stroke-linecap="butt" stroke-linejoin="miter" fill-opacity="0"
                    stroke-miterlimit="4" stroke="rgb(255,5,5)" stroke-opacity="1" stroke-width="0"
                    d=" M0,-4.6875 C1.8971562385559082,-4.6875 3.4375,-2.587031364440918 3.4375,0 C3.4375,2.587031364440918 1.8971562385559082,4.6875 0,4.6875 C-1.8971562385559082,4.6875 -3.4375,2.587031364440918 -3.4375,0 C-3.4375,-2.587031364440918 -1.8971562385559082,-4.6875 0,-4.6875z"></path>
            </g>
        </g>
        <g
            transform="matrix(0.8862737417221069,0.4631631374359131,-0.4631631374359131,0.8862737417221069,126.5234603881836,212.60987854003906)"
            opacity="1" style="display: block;">
            <g opacity="1" transform="matrix(1,0,0,1,18.125,-104.93800354003906)">
                <path fill="rgb(18,45,66)" fill-opacity="1"
                    d=" M0,-4.6875 C1.8971562385559082,-4.6875 3.4375,-2.587031364440918 3.4375,0 C3.4375,2.587031364440918 1.8971562385559082,4.6875 0,4.6875 C-1.8971562385559082,4.6875 -3.4375,2.587031364440918 -3.4375,0 C-3.4375,-2.587031364440918 -1.8971562385559082,-4.6875 0,-4.6875z"></path>
                <path stroke-linecap="butt" stroke-linejoin="miter" fill-opacity="0"
                    stroke-miterlimit="4" stroke="rgb(255,5,5)" stroke-opacity="1" stroke-width="0"
                    d=" M0,-4.6875 C1.8971562385559082,-4.6875 3.4375,-2.587031364440918 3.4375,0 C3.4375,2.587031364440918 1.8971562385559082,4.6875 0,4.6875 C-1.8971562385559082,4.6875 -3.4375,2.587031364440918 -3.4375,0 C-3.4375,-2.587031364440918 -1.8971562385559082,-4.6875 0,-4.6875z"></path>
            </g>
        </g>
        <g
            transform="matrix(0.4444417655467987,0.0071943835355341434,-0.0071943835355341434,0.4444417655467987,214.33770751953125,13.200918197631836)"
            opacity="1" style="display: block;">
            <g opacity="1" transform="matrix(1,0,0,1,112.43099975585938,101.41799926757812)">
                <path stroke-linecap="round" stroke-linejoin="round" fill-opacity="0"
                    stroke="rgb(17,44,65)" stroke-opacity="1" stroke-width="2"
                    d=" M10.920000076293945,-73.50900268554688 C47.590999603271484,-50.28099822998047 64.59200286865234,-3.765000104904175 43.75199890136719,30.584999084472656 C22.913000106811523,64.93599700927734 -26.777999877929688,73.50900268554688 -64.59300231933594,49.124000549316406"></path>
            </g>
            <g opacity="1" transform="matrix(1,0,0,1,82.72899627685547,87.48300170898438)">
                <path fill="rgb(151,151,247)" fill-opacity="1"
                    d=" M-40.39099884033203,60.17100143432617 C-73.62300109863281,37.86399841308594 -82.47899627685547,-7.159999847412109 -60.17100143432617,-40.391998291015625 C-37.86399841308594,-73.62300109863281 7.158999919891357,-82.47799682617188 40.39099884033203,-60.17100143432617 C73.62300109863281,-37.86399841308594 82.47899627685547,7.159999847412109 60.17100143432617,40.391998291015625 C37.86399841308594,73.62300109863281 -7.158999919891357,82.47799682617188 -40.39099884033203,60.17100143432617z"></path>
            </g>
            <g opacity="1" transform="matrix(1,0,0,1,75.5479965209961,76.95999908447266)">
                <path fill="rgb(178,176,247)" fill-opacity="1"
                    d=" M52.79399871826172,31.19300079345703 C31.191999435424805,63.38800048828125 -12.411999702453613,71.95999908447266 -44.595001220703125,50.358001708984375 C-51.034000396728516,46.02799987792969 -56.5359992980957,40.83000183105469 -61.03300094604492,35.005001068115234 C-68.52300262451172,14.081000328063965 -66.33000183105469,-10.005000114440918 -52.99300003051758,-29.871999740600586 C-30.683000564575195,-63.097999572753906 14.338000297546387,-71.96099853515625 47.57500076293945,-49.6510009765625 C50.027000427246094,-48.00299835205078 52.35200119018555,-46.23899841308594 54.5260009765625,-44.36199951171875 C68.2509994506836,-21.72100067138672 68.52300262451172,7.763000011444092 52.79399871826172,31.19300079345703z"></path>
            </g>
            <g opacity="1" transform="matrix(1,0,0,1,85.29399871826172,87.48300170898438)">
                <path stroke-linecap="round" stroke-linejoin="round" fill-opacity="0"
                    stroke="rgb(17,44,65)" stroke-opacity="1" stroke-width="2"
                    d=" M44.779998779296875,-54.88600158691406 C72.18900299072266,-31.288000106811523 78.26899719238281,9.609000205993652 57.608001708984375,40.39500045776367 C35.29800033569336,73.62000274658203 -9.722999572753906,82.48300170898438 -42.959999084472656,60.17300033569336 C-56.319000244140625,51.20000076293945 -65.74500274658203,38.558998107910156 -70.77899932861328,24.482999801635742 C-78.26899719238281,3.558000087738037 -76.07599639892578,-20.527999877929688 -62.73899841308594,-40.39500045776367 C-40.42900085449219,-73.62100219726562 4.5920000076293945,-82.48300170898438 37.82899856567383,-60.17300033569336 C40.28099822998047,-58.525001525878906 42.60599899291992,-56.76300048828125 44.779998779296875,-54.88600158691406z"></path>
            </g>
        </g>
        <g mask="url(#__lottie_element_33_1)" style="display: block;">
            <g
                transform="matrix(0.44449999928474426,0,0,0.44449999928474426,-10.186603546142578,241.2694549560547)"
                opacity="1">
                <path fill="rgb(255,214,192)" fill-opacity="1"
                    d=" M99.71,256.1 C5,207.35 56.82,53.64 109.09,5 C141.31,-29.29 165.56,-44.61 182.72,-31.01 C201.21,-16.35 241.14,3.05 236.55,44.41 C235.96,49.7 220.95,81.92 220.97,81.91 C220.97,81.91 117.15,254.02 217.98,218.99"></path>
                <g opacity="1" transform="matrix(1,0,0,1,111.49099731445312,130.5500030517578)">
                    <path stroke-linecap="round" stroke-linejoin="round" fill-opacity="0"
                        stroke="rgb(17,44,65)" stroke-opacity="1" stroke-width="0"
                        d=" M-11.781000137329102,125.55000305175781 C-106.49099731445312,76.7969970703125 -54.67300033569336,-76.91400146484375 -2.4019999504089355,-125.55000305175781 C29.81599998474121,-159.83900451660156 54.07400131225586,-175.15899658203125 71.22899627685547,-161.5590057373047 C89.71499633789062,-146.9040069580078 129.64700317382812,-127.5 125.05999755859375,-86.14299774169922 C124.47200012207031,-80.84600067138672 109.46399688720703,-48.62699890136719 109.48400115966797,-48.637001037597656 C109.48400115966797,-48.637001037597656 5.6579999923706055,123.4739990234375 106.49099731445312,88.43900299072266"></path>
                </g>
            </g>
        </g>
        <g
            transform="matrix(0.44422921538352966,0.015512825921177864,-0.015512825921177864,0.44422921538352966,39.06109619140625,150.4675750732422)"
            opacity="1" style="display: block;">
            <path fill="rgb(255,214,192)" fill-opacity="1"
                d=" M5,460.45 C117.6,518.42 297.09,325.62 285.85,169.39 C282.39,119.4 261.09,69.2 247.35,42.62 C243.85,36.13 240.06,27.04 238.91,24.87 C236.16,18.31 220.64,5.24 176.29,12.5 C130.74,19.95 130.07,26.01 130.07,26.01 C132.41,30.6 132.86,50.37 135.06,55.68 C153.34,101.73 162.96,177.77 88.02,267.14 C88.02,267.14 54.5,308.54 12.83,329.39"></path>
            <g opacity="1" transform="matrix(1,0,0,1,151.04400634765625,261.7080078125)">
                <path stroke-linecap="round" stroke-linejoin="round" fill-opacity="0"
                    stroke="rgb(17,44,65)" stroke-opacity="1" stroke-width="0"
                    d=" M-146.04400634765625,198.7449951171875 C-33.44499969482422,256.7070007324219 146.04400634765625,63.91600036621094 134.80599975585938,-92.31500244140625 C131.3467254638672,-142.31170654296875 110.04891967773438,-192.50592041015625 96.3019790649414,-219.08404541015625 C92.80977630615234,-225.5777587890625 89.01158905029297,-234.66677856445312 87.86519622802734,-236.8347930908203 C85.11608123779297,-243.39833068847656 69.59382629394531,-256.4714660644531 25.247591018676758,-249.21142578125 C-20.30738067626953,-241.75328063964844 -20.97844696044922,-235.6946563720703 -20.97844696044922,-235.6946563720703 C-18.630556106567383,-231.10757446289062 -18.1884822845459,-211.34170532226562 -15.979650497436523,-206.0286407470703 C2.2982919216156006,-159.97640991210938 11.918392181396484,-83.9423599243164 -63.02399826049805,5.434999942779541 C-63.02399826049805,5.434999942779541 -96.5469970703125,46.827999114990234 -138.21099853515625,67.68499755859375"></path>
            </g>
        </g>
        <g
            transform="matrix(0.44422921538352966,0.015512825921177864,-0.015512825921177864,0.44422921538352966,20.855443954467773,205.90542602539062)"
            opacity="1" style="display: block;">
            <g opacity="1" transform="matrix(1,0,0,1,166.9600067138672,196.2949981689453)">
                <path fill="rgb(245,185,171)" fill-opacity="1"
                    d=" M-125.37999725341797,138.0850067138672 C-145.02999877929688,127.9749984741211 -158.56500244140625,117.67900085449219 -168.94700622558594,98.33599853515625 C-163.57699584960938,103.7959976196289 -157.31700134277344,108.75599670410156 -150.08700561523438,113.1259994506836 C-42.21699905395508,178.30599975585938 151.99000549316406,-1.5850000381469727 151.7899932861328,-156.60499572753906 C151.77000427246094,-171.5449981689453 150.69000244140625,-184.55499267578125 148.8000030517578,-196.0449981689453 C151.9499969482422,-183.76499938964844 154.27000427246094,-169.60499572753906 155.47000122070312,-152.97500610351562 C166.7100067138672,3.255000114440918 -12.779999732971191,196.0449981689453 -125.37999725341797,138.0850067138672z"></path>
            </g>
        </g>
        <g mask="url(#__lottie_element_52_1)" style="display: block;">
            <g
                transform="matrix(0.44449999928474426,0,0,0.44449999928474426,-10.186603546142578,241.2694549560547)"
                opacity="1">
                <g opacity="1" transform="matrix(1,0,0,1,111.49099731445312,130.5500030517578)">
                    <path stroke-linecap="round" stroke-linejoin="round" fill-opacity="0"
                        stroke="rgb(17,44,65)" stroke-opacity="1" stroke-width="2"
                        d=" M-11.781000137329102,125.55000305175781 C-106.49099731445312,76.7969970703125 -54.67300033569336,-76.91400146484375 -2.4019999504089355,-125.55000305175781 C29.81599998474121,-159.83900451660156 54.07400131225586,-175.15899658203125 71.22899627685547,-161.5590057373047"></path>
                </g>
            </g>
        </g>
        <g
            transform="matrix(0.44422921538352966,0.015512825921177864,-0.015512825921177864,0.44422921538352966,39.06109619140625,150.4675750732422)"
            opacity="1" style="display: block;">
            <g opacity="1" transform="matrix(1,0,0,1,151.04400634765625,261.7080078125)">
                <path stroke-linecap="round" stroke-linejoin="round" fill-opacity="0"
                    stroke="rgb(17,44,65)" stroke-opacity="1" stroke-width="2"
                    d=" M-146.04400634765625,198.7449951171875 C-33.44499969482422,256.7070007324219 146.04400634765625,63.91600036621094 134.80599975585938,-92.31500244140625 C131.3467254638672,-142.31170654296875 110.04891967773438,-192.50592041015625 96.3019790649414,-219.08404541015625 C92.80977630615234,-225.5777587890625 89.01158905029297,-234.66677856445312 87.86519622802734,-236.8347930908203 C85.11608123779297,-243.39833068847656 69.59382629394531,-256.4714660644531 25.247591018676758,-249.21142578125 C-20.30738067626953,-241.75328063964844 -20.97844696044922,-235.6946563720703 -20.97844696044922,-235.6946563720703 C-18.630556106567383,-231.10757446289062 -18.1884822845459,-211.34170532226562 -15.979650497436523,-206.0286407470703 C2.2982919216156006,-159.97640991210938 11.918392181396484,-83.9423599243164 -63.02399826049805,5.434999942779541 C-63.02399826049805,5.434999942779541 -96.5469970703125,46.827999114990234 -138.21099853515625,67.68499755859375"></path>
            </g>
        </g>
        <g
            transform="matrix(0.44422921538352966,0.015512825921177864,-0.015512825921177864,0.44422921538352966,88.47795867919922,210.79672241210938)"
            opacity="1" style="display: block;">
            <g opacity="1" transform="matrix(1,0,0,1,98.80899810791016,26.30500030517578)">
                <path stroke-linecap="round" stroke-linejoin="round" fill-opacity="0"
                    stroke="rgb(17,44,65)" stroke-opacity="1" stroke-width="2"
                    d=" M71.74562072753906,17.842124938964844 C81.99111938476562,24.282806396484375 86.65423583984375,29.770748138427734 85.36598205566406,34.149967193603516 C82.31185150146484,44.53423309326172 42.318641662597656,42.06842803955078 -3.9610440731048584,28.642654418945312 C-50.24073028564453,15.216880798339844 -82.08792877197266,-3.397792100906372 -79.03385925292969,-13.782058715820312 C-78.12494659423828,-16.870296478271484 -73.95001220703125,-18.82314682006836 -67.31356048583984,-19.687728881835938"></path>
            </g>
        </g>
        <g
            transform="matrix(0.44422921538352966,0.015512825921177864,-0.015512825921177864,0.44422921538352966,88.47753143310547,210.79624938964844)"
            opacity="1" style="display: block;">
            <g opacity="1" transform="matrix(1,0,0,1,94.09700012207031,69.75700378417969)">
                <path stroke-linecap="round" stroke-linejoin="round" fill-opacity="0"
                    stroke="rgb(17,44,65)" stroke-opacity="1" stroke-width="2"
                    d=" M70.774658203125,30.92987823486328 C79.09744262695312,38.750762939453125 83.03999328613281,45.39813995361328 81.04462432861328,49.6387939453125 C75.98946380615234,60.381980895996094 34.72201919555664,51.60042190551758 -11.126529693603516,30.024433135986328 C-56.975074768066406,8.448444366455078 -90.04235076904297,-17.75099754333496 -84.98776245117188,-28.49496841430664 C-83.3649673461914,-31.94411277770996 -78.01063537597656,-33.38143539428711 -69.97135162353516,-33.02865219116211"></path>
            </g>
        </g>
        <g
            transform="matrix(0.41347384452819824,0.16315601766109467,-0.16315601766109467,0.41347384452819824,89.45062255859375,133.29925537109375)"
            opacity="1" style="display: block;">
            <g opacity="1" transform="matrix(1,0,0,1,37.05400085449219,43.04100036621094)">
                <path fill="rgb(255,214,192)" fill-opacity="1"
                    d=" M15.793771743774414,39.0712776184082 C-10.040206909179688,7.2707085609436035 -7.380000114440918,8.805000305175781 -14.154000282287598,0.1379999965429306 C-20.92799949645996,-8.529999732971191 -26.630456924438477,-32.79424285888672 -14.785133361816406,-37.83876419067383 C2.0910613536834717,-44.974971771240234 17.426748275756836,-22.293745040893555 32.05400085449219,-0.871999979019165"></path>
                <path stroke-linecap="round" stroke-linejoin="round" fill-opacity="0"
                    stroke="rgb(17,44,65)" stroke-opacity="1" stroke-width="2"
                    d=" M15.793771743774414,39.0712776184082 C-10.040206909179688,7.2707085609436035 -7.380000114440918,8.805000305175781 -14.154000282287598,0.1379999965429306 C-20.92799949645996,-8.529999732971191 -26.630456924438477,-32.79424285888672 -14.785133361816406,-37.83876419067383 C2.0910613536834717,-44.974971771240234 17.426748275756836,-22.293745040893555 32.05400085449219,-0.871999979019165"></path>
            </g>
        </g>
        <g
            transform="matrix(0.43174633383750916,0.1057148277759552,-0.1057148277759552,0.43174633383750916,107.01622009277344,126.46281433105469)"
            opacity="1" style="display: block;">
            <g opacity="1" transform="matrix(1,0,0,1,29.148000717163086,45.422000885009766)">
                <path fill="rgb(255,214,192)" fill-opacity="1"
                    d=" M-5.9070000648498535,40.42100143432617 C-5.9070000648498535,40.42100143432617 -23.851999282836914,16.684999465942383 -21.54800033569336,-7.9079999923706055 C-19.243999481201172,-32.5 -4.840000152587891,-40.202999114990234 2.1579999923706055,-39.255001068115234 C9.156999588012695,-38.30699920654297 13.947999954223633,-32.40700149536133 21.93400001525879,-0.9350000023841858 C21.93400001525879,-0.9350000023841858 21.945999145507812,11.984999656677246 30.334999084472656,19.68600082397461"></path>
                <path stroke-linecap="round" stroke-linejoin="round" fill-opacity="0"
                    stroke="rgb(17,44,65)" stroke-opacity="1" stroke-width="2"
                    d=" M-5.9070000648498535,40.42100143432617 C-5.9070000648498535,40.42100143432617 -23.851999282836914,16.684999465942383 -21.54800033569336,-7.9079999923706055 C-19.243999481201172,-32.5 -4.840000152587891,-40.202999114990234 2.1579999923706055,-39.255001068115234 C9.156999588012695,-38.30699920654297 13.947999954223633,-32.40700149536133 21.93400001525879,-0.9350000023841858 C21.93400001525879,-0.9350000023841858 21.945999145507812,11.984999656677246 30.334999084472656,19.68600082397461"></path>
            </g>
        </g>
        <g
            transform="matrix(0.43174633383750916,0.1057148277759552,-0.1057148277759552,0.43174633383750916,122.93988800048828,130.36228942871094)"
            opacity="1" style="display: block;">
            <g opacity="1" transform="matrix(1,0,0,1,43.946998596191406,44.141998291015625)">
                <path fill="rgb(255,214,192)" fill-opacity="1"
                    d=" M-23.966999053955078,29.841999053955078 C-38.94599914550781,10.607999801635742 -36.3380012512207,-10.696999549865723 -31.628000259399414,-25.98699951171875 C-31.628000259399414,-25.98699951171875 -26.844999313354492,-39.141998291015625 -15.170000076293945,-38.1609992980957 C-2.556999921798706,-37.10200119018555 3.3289999961853027,-15.666999816894531 9.838000297546387,-1.1039999723434448 C13.270999908447266,6.574999809265137 15.28600025177002,10.506199836730957 25.104000091552734,23.142200469970703"></path>
                <path stroke-linecap="round" stroke-linejoin="round" fill-opacity="0"
                    stroke="rgb(17,44,65)" stroke-opacity="1" stroke-width="2"
                    d=" M-23.966999053955078,29.841999053955078 C-38.94599914550781,10.607999801635742 -36.3380012512207,-10.696999549865723 -31.628000259399414,-25.98699951171875 C-31.628000259399414,-25.98699951171875 -26.844999313354492,-39.141998291015625 -15.170000076293945,-38.1609992980957 C-2.556999921798706,-37.10200119018555 3.3289999961853027,-15.666999816894531 9.838000297546387,-1.1039999723434448 C13.270999908447266,6.574999809265137 15.28600025177002,10.506199836730957 25.104000091552734,23.142200469970703"></path>
            </g>
        </g>
        <g
            transform="matrix(0.440105676651001,-0.06234771013259888,0.06234771013259888,0.440105676651001,131.82675170898438,296.74810791015625)"
            opacity="1" style="display: block;">
            <g opacity="1" transform="matrix(1,0,0,1,51.21699905395508,51.21699905395508)">
                <path fill="rgb(255,214,192)" fill-opacity="1"
                    d=" M16.35700035095215,-16.35700035095215 C36.9900016784668,4.276000022888184 46.393001556396484,28.325000762939453 37.36000061035156,37.35900115966797 C28.32699966430664,46.391998291015625 4.2779998779296875,36.987998962402344 -16.354999542236328,16.354999542236328 C-36.987998962402344,-4.2779998779296875 -46.391998291015625,-28.32699966430664 -37.35900115966797,-37.36000061035156 C-28.325000762939453,-46.393001556396484 -4.276000022888184,-36.9900016784668 16.35700035095215,-16.35700035095215z"></path>
                <path stroke-linecap="round" stroke-linejoin="round" fill-opacity="0"
                    stroke="rgb(17,44,65)" stroke-opacity="1" stroke-width="1.93"
                    d=" M16.35700035095215,-16.35700035095215 C36.9900016784668,4.276000022888184 46.393001556396484,28.325000762939453 37.36000061035156,37.35900115966797 C28.32699966430664,46.391998291015625 4.2779998779296875,36.987998962402344 -16.354999542236328,16.354999542236328 C-36.987998962402344,-4.2779998779296875 -46.391998291015625,-28.32699966430664 -37.35900115966797,-37.36000061035156 C-28.325000762939453,-46.393001556396484 -4.276000022888184,-36.9900016784668 16.35700035095215,-16.35700035095215z"></path>
            </g>
        </g>
        <g mask="url(#__lottie_element_12_1)" style="display: block;">
            <g transform="matrix(1,0,0,1,-277,-182)" opacity="1">
                <g opacity="1"
                    transform="matrix(0.44449999928474426,0,0,0.44449999928474426,404.2721862792969,432.74169921875)">
                    <path fill="rgb(255,214,192)" fill-opacity="1"
                        d=" M294.34,119.82 C295.43,120.49 309.88,143.03 304.69,158.29 C296.52,182.29 237.68,165.85 103.94,136.07 C90.29,133.03 77.52,131.13 65.63,130.17 C65.63,130.17 5,148.12 6.9,194.41 C8.79,240.69 81.29,266.07 81.29,266.07 C102.35,272.76 125.18,283 151.36,292.39 C165.64,297.52 180.92,302.39 197.45,306.28 C387.9,351.15 563.82,229.2 451.3,68.91 C443.44,57.71 434.18,46.42 423.42,35.08 C419.5,30.95 410.84,22.89 410.84,22.89 C410.84,22.89 326.07,-47.97 279.27,-4.13 C232.47,39.71 294.3,119.79 294.34,119.82z"></path>
                    <g opacity="1" transform="matrix(1,0,0,1,284.3080139160156,178.0749969482422)">
                        <path stroke-linecap="round" stroke-linejoin="round" fill-opacity="0"
                            stroke="rgb(17,44,65)" stroke-opacity="1" stroke-width="0"
                            d=" M10.035475730895996,-58.255348205566406 C11.125475883483887,-57.585350036621094 25.567514419555664,-35.0422477722168 20.377513885498047,-19.78224754333496 C12.207513809204102,4.217752456665039 -46.625999450683594,-12.222000122070312 -180.37100219726562,-42.005001068115234 C-194.01400756835938,-45.042999267578125 -206.79200744628906,-46.948001861572266 -218.67799377441406,-47.90700149536133 C-218.67799377441406,-47.90700149536133 -279.3089904785156,-29.954999923706055 -277.4129943847656,16.33099937438965 C-275.5169982910156,62.617027282714844 -203.01699829101562,87.99700164794922 -203.01699829101562,87.99700164794922 C-181.9600067138672,94.68099975585938 -159.13099670410156,104.93000030517578 -132.95199584960938,114.31600189208984 C-118.6719970703125,119.44599914550781 -103.39099884033203,124.31600189208984 -86.86100006103516,128.20599365234375 C103.58899688720703,173.0760040283203 279.5104675292969,51.12762451171875 166.990478515625,-109.1623764038086 C159.13047790527344,-120.36237335205078 149.8704833984375,-131.65237426757812 139.1104736328125,-142.99237060546875 C135.1904754638672,-147.12237548828125 126.53047943115234,-155.182373046875 126.53047943115234,-155.182373046875 C126.53047943115234,-155.182373046875 41.766475677490234,-226.04934692382812 -5.036523818969727,-182.20535278320312 C-51.83952331542969,-138.36134338378906 9.995475769042969,-58.28534698486328 10.035475730895996,-58.255348205566406z"></path>
                    </g>
                </g>
                <g opacity="1"
                    transform="matrix(0.44449999928474426,0,0,0.44449999928474426,471.439453125,455.30810546875)">
                    <g opacity="1" transform="matrix(1,0,0,1,206.3800048828125,150.31500244140625)">
                        <path fill="rgb(245,185,171)" fill-opacity="1"
                            d=" M-160.0399932861328,105.19499969482422 C-176.57000732421875,101.30500030517578 -191.85000610351562,96.43499755859375 -206.1300048828125,91.30500030517578 C-189.2899932861328,95.2249984741211 -171.19000244140625,98.79499816894531 -151.58999633789062,100.8550033569336 C27.68000030517578,119.65499877929688 175.94952392578125,6.67432975769043 94.83953094482422,-127.92566680908203 C203.28797912597656,33.908775329589844 30.40999984741211,150.06402587890625 -160.0399932861328,105.19499969482422z"></path>
                    </g>
                </g>
                <g opacity="1"
                    transform="matrix(0.44449999928474426,0,0,0.44449999928474426,404.2721862792969,432.74169921875)">
                    <g opacity="1" transform="matrix(1,0,0,1,284.3080139160156,178.0749969482422)">
                        <path stroke-linecap="round" stroke-linejoin="round" fill-opacity="0"
                            stroke="rgb(17,44,65)" stroke-opacity="1" stroke-width="2"
                            d=" M10.035475730895996,-58.255348205566406 C11.125475883483887,-57.585350036621094 25.567514419555664,-35.0422477722168 20.377513885498047,-19.78224754333496 C12.207513809204102,4.217752456665039 -46.625999450683594,-12.222000122070312 -180.37100219726562,-42.005001068115234 C-194.01400756835938,-45.042999267578125 -206.79200744628906,-46.948001861572266 -218.67799377441406,-47.90700149536133 C-218.67799377441406,-47.90700149536133 -279.3089904785156,-29.954999923706055 -277.4129943847656,16.33099937438965 C-275.5169982910156,62.617027282714844 -203.01699829101562,87.99700164794922 -203.01699829101562,87.99700164794922 C-181.9600067138672,94.68099975585938 -159.13099670410156,104.93000030517578 -132.95199584960938,114.31600189208984 C-118.6719970703125,119.44599914550781 -103.39099884033203,124.31600189208984 -86.86100006103516,128.20599365234375 C103.58899688720703,173.0760040283203 279.5104675292969,51.12762451171875 166.990478515625,-109.1623764038086 C159.13047790527344,-120.36237335205078 149.8704833984375,-131.65237426757812 139.1104736328125,-142.99237060546875 C135.1904754638672,-147.12237548828125 126.53047943115234,-155.182373046875 126.53047943115234,-155.182373046875 C126.53047943115234,-155.182373046875 41.766475677490234,-226.04934692382812 -5.036523818969727,-182.20535278320312 C-51.83952331542969,-138.36134338378906 9.995475769042969,-58.28534698486328 10.035475730895996,-58.255348205566406z"></path>
                    </g>
                </g>
            </g>
        </g>
        <g
            transform="matrix(0.44449999928474426,0,0,0.44449999928474426,98.99732971191406,305.37017822265625)"
            opacity="1" style="display: block;">
            <g opacity="1" transform="matrix(1,0,0,1,80.39600372314453,40.757999420166016)">
                <path fill="rgb(255,214,192)" fill-opacity="1"
                    d=" M-4.585000038146973,24.976999282836914 C-4.585000038146973,24.976999282836914 -46.22600173950195,52.3489990234375 -59.05799865722656,38.84000015258789 C-75.26000213623047,21.781999588012695 -45.005001068115234,-4.875 -28.174999237060547,-15.508999824523926 C-16.273000717163086,-23.030000686645508 6.620999813079834,-35.75699996948242 48.845001220703125,-33.486000061035156 C48.845001220703125,-33.486000061035156 64.80500030517578,-32.090999603271484 75.39600372314453,-29.966999053955078"></path>
                <path stroke-linecap="round" stroke-linejoin="round" fill-opacity="0"
                    stroke="rgb(17,44,65)" stroke-opacity="1" stroke-width="2"
                    d=" M-4.585000038146973,24.976999282836914 C-4.585000038146973,24.976999282836914 -46.22600173950195,52.3489990234375 -59.05799865722656,38.84000015258789 C-75.26000213623047,21.781999588012695 -45.005001068115234,-4.875 -28.174999237060547,-15.508999824523926 C-16.273000717163086,-23.030000686645508 6.620999813079834,-35.75699996948242 48.845001220703125,-33.486000061035156 C48.845001220703125,-33.486000061035156 64.80500030517578,-32.090999603271484 75.39600372314453,-29.966999053955078"></path>
            </g>
        </g>
        <g
            transform="matrix(0.44449999928474426,0,0,0.44449999928474426,104.31505584716797,322.129150390625)"
            opacity="1" style="display: block;">
            <g opacity="1" transform="matrix(1,0,0,1,40.0260009765625,45.40800094604492)">
                <path fill="rgb(255,214,192)" fill-opacity="1"
                    d=" M35.0260009765625,-40.409000396728516 C-20.96500015258789,-25.98200035095215 -35.08449935913086,12.324091911315918 -18.859498977661133,27.414091110229492 C-18.859498977661133,27.414091110229492 -2.6161859035491943,38.47694396972656 28.51381492614746,18.255945205688477"></path>
                <path stroke-linecap="round" stroke-linejoin="round" fill-opacity="0"
                    stroke="rgb(17,44,65)" stroke-opacity="1" stroke-width="2"
                    d=" M35.0260009765625,-40.409000396728516 C-20.96500015258789,-25.98200035095215 -35.08449935913086,12.324091911315918 -18.859498977661133,27.414091110229492 C-18.859498977661133,27.414091110229492 -2.6161859035491943,38.47694396972656 28.51381492614746,18.255945205688477"></path>
            </g>
        </g>
        <g
            transform="matrix(0.44449999928474426,0,0,0.44449999928474426,112.27296447753906,339.7854309082031)"
            opacity="1" style="display: block;">
            <g opacity="1" transform="matrix(1,0,0,1,62.895999908447266,36.50299835205078)">
                <path fill="rgb(255,214,192)" fill-opacity="1"
                    d=" M3.9579999446868896,-31.503999710083008 C-27.28998565673828,-30.52031135559082 -58.193145751953125,-9.161676406860352 -49.18514633178711,9.65332317352295 C-49.18514633178711,9.65332317352295 -44.387088775634766,26.74050521850586 -3.8849313259124756,20.929670333862305 C25.08793067932129,16.70952606201172 57.895999908447266,31.14299964904785 57.895999908447266,31.14299964904785"></path>
                <path stroke-linecap="round" stroke-linejoin="round" fill-opacity="0"
                    stroke="rgb(17,44,65)" stroke-opacity="1" stroke-width="2"
                    d=" M3.9579999446868896,-31.503999710083008 C-27.28998565673828,-30.52031135559082 -58.193145751953125,-9.161676406860352 -49.18514633178711,9.65332317352295 C-49.18514633178711,9.65332317352295 -44.387088775634766,26.74050521850586 -3.8849313259124756,20.929670333862305 C25.08793067932129,16.70952606201172 57.895999908447266,31.14299964904785 57.895999908447266,31.14299964904785"></path>
            </g>
        </g>
    </g>
</svg>