<svg xmlns="http://www.w3.org/2000/svg" xmlns:xlink="http://www.w3.org/1999/xlink"
    viewBox="0 0 186 182" width="186" height="182" preserveAspectRatio="xMidYMid meet"
    style="width: 100%; height: 100%; transform: translate3d(0px, 0px, 0px); content-visibility: visible;">
    <defs>
        <clipPath id="__lottie_element_2">
            <rect width="186" height="182" x="0" y="0"></rect>
        </clipPath>
    </defs>
    <g clip-path="url(#__lottie_element_2)">
        <g
            transform="matrix(-0.4412131607532501,-0.053955357521772385,-0.053955357521772385,0.4412131607532501,185.2363739013672,90.32928466796875)"
            opacity="1" style="display: block;">
            <g opacity="1" transform="matrix(1,0,0,1,39.53099822998047,39.53099822998047)">
                <path fill="rgb(255,214,192)" fill-opacity="1"
                    d=" M-32.69599914550781,-3.322000026702881 C-34.529998779296875,14.736000061035156 -21.378999710083008,30.863000869750977 -3.321000099182129,32.696998596191406 C14.737000465393066,34.53099822998047 30.86199951171875,21.3799991607666 32.69599914550781,3.322000026702881 C34.529998779296875,-14.736000061035156 21.378999710083008,-30.863000869750977 3.321000099182129,-32.696998596191406 C-14.737000465393066,-34.53099822998047 -30.86199951171875,-21.3799991607666 -32.69599914550781,-3.322000026702881z"></path>
            </g>
            <g opacity="1" transform="matrix(1,0,0,1,39.2599983215332,52.16400146484375)">
                <path fill="rgb(245,185,171)" fill-opacity="1"
                    d=" M-3.053999900817871,20.062999725341797 C-20.525999069213867,18.288000106811523 -33.40599822998047,3.134000062942505 -32.55500030517578,-14.220000267028809 C-28.9060001373291,-1.7730000019073486 -18.033000946044922,7.835000038146973 -4.336999893188477,9.237000465393066 C13.720000267028809,11.067999839782715 29.85300064086914,-2.0899999141693115 31.684999465942383,-20.14699935913086 C31.740999221801758,-20.732999801635742 31.783000946044922,-21.31399917602539 31.80900001525879,-21.893999099731445 C32.97999954223633,-17.92300033569336 33.40599822998047,-13.673999786376953 32.96200180053711,-9.3100004196167 C31.131000518798828,8.748000144958496 15.003999710083008,21.893999099731445 -3.053999900817871,20.062999725341797z"></path>
            </g>
            <g opacity="1" transform="matrix(1,0,0,1,38.91999816894531,39.09700012207031)">
                <path stroke-linecap="round" stroke-linejoin="round" fill-opacity="0"
                    stroke="rgb(17,44,65)" stroke-opacity="1" stroke-width="2"
                    d=" M33.46699905395508,1.2719999551773071 C33.91999816894531,-15.758999824523926 21.158000946044922,-30.51300048828125 3.933000087738037,-32.26300048828125 C-14.125,-34.09700012207031 -30.250999450683594,-20.94499969482422 -32.084999084472656,-2.888000011444092 C-33.91999816894531,15.170000076293945 -20.76799964904785,31.29599952697754 -2.7100000381469727,33.130001068115234 C6.804999828338623,34.09700012207031 15.784000396728516,30.902000427246094 22.417999267578125,25.02199935913086"></path>
            </g>
            <g opacity="1" transform="matrix(1,0,0,1,43.76900100708008,35.154998779296875)">
                <path stroke-linecap="round" stroke-linejoin="round" fill-opacity="0"
                    stroke="rgb(17,44,65)" stroke-opacity="1" stroke-width="2"
                    d=" M10.67199993133545,14.388999938964844 C15.291999816894531,4.395999908447266 11.156000137329102,-7.348999977111816 1.4329999685287476,-11.845000267028809 C-4.070000171661377,-14.388999938964844 -10.184000015258789,-14.065999984741211 -15.291999816894531,-11.494000434875488"></path>
            </g>
        </g>
        <g
            transform="matrix(-0.43734461069107056,-0.07943502068519592,-0.07943502068519592,0.43734461069107056,181.09805297851562,115.58175659179688)"
            opacity="1" style="display: block;">
            <g opacity="1" transform="matrix(1,0,0,1,18.27199935913086,18.273000717163086)">
                <path fill="rgb(255,255,255)" fill-opacity="1"
                    d=" M13.229000091552734,0.07900000363588333 C13.1850004196167,7.385000228881836 7.2270002365112305,13.272000312805176 -0.07900000363588333,13.227999687194824 C-7.385000228881836,13.184000015258789 -13.272000312805176,7.224999904632568 -13.227999687194824,-0.07999999821186066 C-13.184000015258789,-7.386000156402588 -7.2270002365112305,-13.27299976348877 0.07900000363588333,-13.229000091552734 C7.385000228881836,-13.1850004196167 13.27299976348877,-7.2270002365112305 13.229000091552734,0.07900000363588333z"></path>
                <path stroke-linecap="round" stroke-linejoin="round" fill-opacity="0"
                    stroke="rgb(17,44,65)" stroke-opacity="1" stroke-width="2"
                    d=" M13.229000091552734,0.07900000363588333 C13.1850004196167,7.385000228881836 7.2270002365112305,13.272000312805176 -0.07900000363588333,13.227999687194824 C-7.385000228881836,13.184000015258789 -13.272000312805176,7.224999904632568 -13.227999687194824,-0.07999999821186066 C-13.184000015258789,-7.386000156402588 -7.2270002365112305,-13.27299976348877 0.07900000363588333,-13.229000091552734 C7.385000228881836,-13.1850004196167 13.27299976348877,-7.2270002365112305 13.229000091552734,0.07900000363588333z"></path>
            </g>
        </g>
        <g
            transform="matrix(-0.4434099495410919,-0.031110361218452454,-0.031110361218452454,0.4434099495410919,180.44415283203125,67.95745849609375)"
            opacity="1" style="display: block;">
            <g opacity="1" transform="matrix(1,0,0,1,139.81199645996094,139.1959991455078)">
                <path fill="rgb(255,214,192)" fill-opacity="1"
                    d=" M97.89800262451172,65.71499633789062 C61.604000091552734,119.78299713134766 -11.64799976348877,134.1909942626953 -65.71600341796875,97.89700317382812 C-119.78299713134766,61.604000091552734 -134.19200134277344,-11.64799976348877 -97.89800262451172,-65.71499633789062 C-61.604000091552734,-119.78299713134766 11.64799976348877,-134.1909942626953 65.71600341796875,-97.89800262451172 C119.78299713134766,-61.604000091552734 134.19200134277344,11.647000312805176 97.89800262451172,65.71499633789062z"></path>
            </g>
            <g opacity="1" transform="matrix(1,0,0,1,163.0189971923828,157.01800537109375)">
                <path fill="rgb(245,185,171)" fill-opacity="1"
                    d=" M41.888999938964844,-115.7249984741211 C41.558998107910156,-115.9469985961914 41.22200012207031,-116.14800262451172 40.88999938964844,-116.36599731445312 C40.88999938964844,-116.36599731445312 26.506999969482422,-108.7249984741211 26.506999969482422,-108.7249984741211 C77.44599914550781,-74.31800079345703 92.05999755859375,-7.986000061035156 58.30799865722656,42.29499816894531 C24.4950008392334,92.66699981689453 -45.05699920654297,107.85399627685547 -96.22200012207031,73.50900268554688 C-101.3030014038086,70.0979995727539 -106.02899932861328,66.34400177001953 -110.36499786376953,62.29800033569336 C-104.26399993896484,68.87300109863281 -97.31700134277344,74.85299682617188 -89.54199981689453,80.0719985961914 C-35.4739990234375,116.36599731445312 37.7760009765625,101.95800018310547 74.06999969482422,47.888999938964844 C110.36399841308594,-6.178999900817871 95.95700073242188,-79.43099975585938 41.888999938964844,-115.7249984741211z"></path>
            </g>
            <g opacity="1" transform="matrix(1,0,0,1,139.19200134277344,139.1909942626953)">
                <path stroke-linecap="round" stroke-linejoin="round" fill-opacity="0"
                    stroke="rgb(17,44,65)" stroke-opacity="1" stroke-width="2"
                    d=" M97.89800262451172,65.71499633789062 C61.604000091552734,119.78299713134766 -11.64799976348877,134.1909942626953 -65.71600341796875,97.89700317382812 C-119.78299713134766,61.604000091552734 -134.19200134277344,-11.64799976348877 -97.89800262451172,-65.71499633789062 C-61.604000091552734,-119.78299713134766 11.64799976348877,-134.1909942626953 65.71600341796875,-97.89700317382812 C119.78299713134766,-61.604000091552734 134.19200134277344,11.647000312805176 97.89800262451172,65.71499633789062z"></path>
            </g>
        </g>
        <g
            transform="matrix(-0.4434099495410919,-0.031110361218452454,-0.031110361218452454,0.4434099495410919,155.67559814453125,58.536746978759766)"
            opacity="1" style="display: block;">
            <g opacity="1" transform="matrix(1,0,0,1,111.43399810791016,83.75499725341797)">
                <path fill="rgb(178,176,247)" fill-opacity="1"
                    d=" M79.19586944580078,-5.32427453994751 C74.78787231445312,-12.540274620056152 69.54887390136719,-19.3885555267334 63.505592346191406,-25.721275329589844 C57.94559097290039,-31.547273635864258 51.71559143066406,-36.930274963378906 44.837589263916016,-41.753273010253906 C4.406590461730957,-70.10527801513672 -46.63541030883789,-70.85599517822266 -83.88941192626953,-47.45927429199219 C-93.98741149902344,-41.11727523803711 -103.08969116210938,-33.014556884765625 -110.65812683105469,-23.17927360534668 C-112.1811294555664,-21.200273513793945 -110.58040618896484,-19.42027473449707 -108.63340759277344,-19.618274688720703 C-89.03240966796875,-21.608274459838867 -54.96841049194336,-16.319992065429688 -31.85740852355957,-9.000274658203125 C-16.43840980529785,-4.116274356842041 -1.154409408569336,3.5434436798095703 13.913590431213379,12.654726028442383 C20.25259017944336,16.48772621154785 26.323591232299805,20.532726287841797 32.110591888427734,24.756725311279297 C37.16358947753906,14.700725555419922 39.86659240722656,4.154725551605225 40.158592224121094,-5.933274269104004 C44.13658905029297,5.295725345611572 45.01559066772461,20.047725677490234 43.57659149169922,33.72872543334961 C62.13759231567383,49.20872497558594 78.00271606445312,67.17816162109375 88.69458770751953,84.86272430419922 C89.5785903930664,86.32472229003906 91.6305923461914,86.65472412109375 92.26759338378906,84.39972686767578 C100.68559265136719,54.6057243347168 95.89058685302734,22.00472640991211 79.19586944580078,-5.32427453994751z"></path>
            </g>
            <g opacity="1" transform="matrix(1,0,0,1,178.24200439453125,91.31300354003906)">
                <path fill="rgb(151,151,247)" fill-opacity="1"
                    d=" M22.210872650146484,77.84172821044922 C18.15487289428711,71.06372833251953 8.937590599060059,58.8087272644043 3.651590585708618,52.22172546386719 C11.087590217590332,25.608726501464844 8.289698600769043,-13.653664588928223 -17.59840965270996,-40.73827362060547 C-22.5764102935791,-45.943275451660156 -28.1561279296875,-50.7685546875 -34.3054084777832,-55.081275939941406 C-38.7324104309082,-58.186275482177734 -43.31140899658203,-60.93327331542969 -47.98841094970703,-63.29927444458008 C-39.00440979003906,-59.78227615356445 -30.267845153808594,-55.129554748535156 -21.97012710571289,-49.311275482177734 C-15.094127655029297,-44.49027633666992 -8.86197280883789,-39.111148834228516 -3.2991275787353516,-33.2819938659668 C25.780872344970703,-2.801992654800415 36.57158660888672,39.7877082824707 25.286590576171875,77.44200897216797 C24.86458969116211,78.84600830078125 22.9613094329834,79.09700775146484 22.210872650146484,77.84172821044922z"></path>
            </g>
            <g opacity="1" transform="matrix(1,0,0,1,111.43399810791016,83.75499725341797)">
                <path stroke-linecap="round" stroke-linejoin="round" fill-opacity="0"
                    stroke="rgb(17,44,65)" stroke-opacity="1" stroke-width="2"
                    d=" M79.19586944580078,-5.32427453994751 C74.78787231445312,-12.540274620056152 69.54887390136719,-19.3885555267334 63.505592346191406,-25.721275329589844 C57.94559097290039,-31.547273635864258 51.71559143066406,-36.930274963378906 44.837589263916016,-41.753273010253906 C4.406590461730957,-70.10527801513672 -46.63541030883789,-70.85599517822266 -83.88941192626953,-47.45927429199219 C-93.98741149902344,-41.11727523803711 -103.08969116210938,-33.014556884765625 -110.65812683105469,-23.17927360534668 C-112.1811294555664,-21.200273513793945 -110.58040618896484,-19.42027473449707 -108.63340759277344,-19.618274688720703 C-89.03240966796875,-21.608274459838867 -54.96841049194336,-16.319992065429688 -31.85740852355957,-9.000274658203125 C-16.43840980529785,-4.116274356842041 -1.154409408569336,3.5434436798095703 13.913590431213379,12.654726028442383 C20.25259017944336,16.48772621154785 26.323591232299805,20.532726287841797 32.110591888427734,24.756725311279297 C37.16358947753906,14.700725555419922 39.86659240722656,4.154725551605225 40.158592224121094,-5.933274269104004 C44.13658905029297,5.295725345611572 45.01559066772461,20.047725677490234 43.57659149169922,33.72872543334961 C62.13759231567383,49.20872497558594 78.00271606445312,67.17816162109375 88.69458770751953,84.86272430419922 C89.5785903930664,86.32472229003906 91.6305923461914,86.65472412109375 92.26759338378906,84.39972686767578 C100.68559265136719,54.6057243347168 95.89058685302734,22.00472640991211 79.19586944580078,-5.32427453994751z"></path>
            </g>
        </g>
        <g
            transform="matrix(-0.44341015815734863,-0.031110374256968498,-0.031110374256968498,0.44341015815734863,160.76832580566406,95.88452911376953)"
            opacity="1" style="display: block;">
            <g opacity="1" transform="matrix(1,0,0,1,134.97999572753906,49.03900146484375)">
                <path fill="rgb(17,44,65)" fill-opacity="1"
                    d=" M15.335611343383789,-8.926911354064941 C21.97861099243164,-2.888911008834839 24.130611419677734,5.563088893890381 20.141611099243164,9.953088760375977 C16.152610778808594,14.34208869934082 7.532610893249512,13.005088806152344 0.8896109461784363,6.9680891036987305 C-5.75338888168335,0.930088996887207 -7.906389236450195,-7.523910999298096 -3.916388988494873,-11.911911010742188 C0.07361094653606415,-16.30091094970703 8.692610740661621,-14.964911460876465 15.335611343383789,-8.926911354064941z"></path>
            </g>
        </g>
        <g
            transform="matrix(-0.44341015815734863,-0.031110374256968498,-0.031110374256968498,0.44341015815734863,160.7676239013672,95.88444519042969)"
            opacity="1" style="display: block;">
            <g opacity="1" transform="matrix(1,0,0,1,114.0260009765625,108.46700286865234)">
                <path fill="rgb(255,166,224)" fill-opacity="1"
                    d=" M1.215000033378601,-9.131999969482422 C8.848999977111816,-8.116000175476074 14.493000030517578,-3.2039999961853027 13.821000099182129,1.840000033378601 C13.149999618530273,6.882999897003174 6.418000221252441,10.14799976348877 -1.215999960899353,9.131999969482422 C-8.848999977111816,8.116000175476074 -14.493000030517578,3.2039999961853027 -13.821999549865723,-1.840000033378601 C-13.151000022888184,-6.882999897003174 -6.419000148773193,-10.14799976348877 1.215000033378601,-9.131999969482422z"></path>
            </g>
        </g>
        <g
            transform="matrix(-0.44341015815734863,-0.031110374256968498,-0.031110374256968498,0.44341015815734863,160.76840209960938,95.88492584228516)"
            opacity="1" style="display: block;">
            <g opacity="1" transform="matrix(1,0,0,1,14.211000442504883,69.18900299072266)">
                <path fill="rgb(255,166,224)" fill-opacity="1"
                    d=" M5.908999919891357,-7.068999767303467 C0,-12.008000373840332 -7.435999870300293,-12.845999717712402 -10.699000358581543,-8.942000389099121 C-13.961999893188477,-5.039000034332275 -11.815999984741211,2.130000114440918 -5.9079999923706055,7.068999767303467 C0.0010000000474974513,12.008000373840332 7.435999870300293,12.847000122070312 10.699000358581543,8.942999839782715 C13.961999893188477,5.039000034332275 11.817999839782715,-2.130000114440918 5.908999919891357,-7.068999767303467z"></path>
            </g>
        </g>
        <g
            transform="matrix(-0.44341015815734863,-0.031110374256968498,-0.031110374256968498,0.44341015815734863,160.76776123046875,95.88431549072266)"
            opacity="1" style="display: block;">
            <g opacity="1" transform="matrix(1,0,0,1,40.547000885009766,10.144000053405762)">
                <path fill="rgb(17,44,65)" fill-opacity="1"
                    d=" M-0.2788495719432831,-13.516183853149414 C-0.3778495490550995,-13.516183853149414 -0.4768495559692383,-13.51518440246582 -0.5758495330810547,-13.51418399810791 C-8.844849586486816,-13.408184051513672 -15.490849494934082,-8.893184661865234 -15.420849800109863,-3.4301843643188477 C-15.351849555969238,1.9678157567977905 -8.751849174499512,6.271815776824951 -0.6188495755195618,6.271815776824951 C-0.5198495388031006,6.271815776824951 -0.4208495616912842,6.270815849304199 -0.3218495547771454,6.269815921783447 C7.947150230407715,6.162815570831299 14.59315013885498,1.6478157043457031 14.523150444030762,-3.8151843547821045 C14.454150199890137,-9.212183952331543 7.854150295257568,-13.516183853149414 -0.2788495719432831,-13.516183853149414z"></path>
            </g>
        </g>
        <g
            transform="matrix(-0.44341015815734863,-0.031110374256968498,-0.031110374256968498,0.44341015815734863,160.7675018310547,95.88494873046875)"
            opacity="1" style="display: block;">
            <g opacity="1" transform="matrix(1,0,0,1,64.38700103759766,86.197998046875)">
                <path fill="rgb(17,44,65)" fill-opacity="1"
                    d=" M21.91200065612793,-1.0449999570846558 C14.687999725341797,11.380999565124512 2.1989998817443848,17.847999572753906 -7.793000221252441,13.651000022888184 C-17.78499984741211,9.454000473022461 -21.91200065612793,-3.990999937057495 -18.094999313354492,-17.849000930786133 C-18.094999313354492,-17.849000930786133 21.91200065612793,-1.0449999570846558 21.91200065612793,-1.0449999570846558z"></path>
                <path stroke-linecap="round" stroke-linejoin="round" fill-opacity="0"
                    stroke="rgb(17,44,65)" stroke-opacity="1" stroke-width="2"
                    d=" M21.91200065612793,-1.0449999570846558 C14.687999725341797,11.380999565124512 2.1989998817443848,17.847999572753906 -7.793000221252441,13.651000022888184 C-17.78499984741211,9.454000473022461 -21.91200065612793,-3.990999937057495 -18.094999313354492,-17.849000930786133 C-18.094999313354492,-17.849000930786133 21.91200065612793,-1.0449999570846558 21.91200065612793,-1.0449999570846558z"></path>
            </g>
        </g>
        <g
            transform="matrix(-0.44341015815734863,-0.031110374256968498,-0.031110374256968498,0.44341015815734863,160.7679443359375,95.885009765625)"
            opacity="1" style="display: block;">
            <g opacity="1" transform="matrix(1,0,0,1,61.016998291015625,96.3030014038086)">
                <path fill="rgb(255,166,224)" fill-opacity="1"
                    d=" M-11.130999565124512,-2.503000020980835 C-6.056000232696533,-5.659999847412109 1.343000054359436,-5.363999843597412 7.485000133514404,-1.2410000562667847 C9.053000450134277,-0.1889999955892563 10.420999526977539,1.034000039100647 11.572999954223633,2.369999885559082 C6.270999908447266,5.070000171661377 0.6069999933242798,5.659999847412109 -4.423999786376953,3.546999931335449 C-7.317999839782715,2.3310000896453857 -9.718999862670898,0.3400000035762787 -11.572999954223633,-2.2149999141693115 C-11.428000450134277,-2.313999891281128 -11.281000137329102,-2.4100000858306885 -11.130999565124512,-2.503000020980835z"></path>
                <path stroke-linecap="round" stroke-linejoin="round" fill-opacity="0"
                    stroke="rgb(17,44,65)" stroke-opacity="1" stroke-width="2"
                    d=" M-11.130999565124512,-2.503000020980835 C-6.056000232696533,-5.659999847412109 1.343000054359436,-5.363999843597412 7.485000133514404,-1.2410000562667847 C9.053000450134277,-0.1889999955892563 10.420999526977539,1.034000039100647 11.572999954223633,2.369999885559082 C6.270999908447266,5.070000171661377 0.6069999933242798,5.659999847412109 -4.423999786376953,3.546999931335449 C-7.317999839782715,2.3310000896453857 -9.718999862670898,0.3400000035762787 -11.572999954223633,-2.2149999141693115 C-11.428000450134277,-2.313999891281128 -11.281000137329102,-2.4100000858306885 -11.130999565124512,-2.503000020980835z"></path>
            </g>
        </g>
        <g
            transform="matrix(-0.4437199532985687,0.026322094723582268,0.026322094723582268,0.4437199532985687,76.26310729980469,124.42439270019531)"
            opacity="1" style="display: block;">
            <g opacity="1" transform="matrix(1,0,0,1,40.18000030517578,44.43299865722656)">
                <path fill="rgb(255,214,192)" fill-opacity="1"
                    d=" M29.131000518798828,19.554000854492188 C18.33099937438965,35.641998291015625 -3.4670000076293945,39.93000030517578 -19.55500030517578,29.1299991607666 C-35.643001556396484,18.33099937438965 -39.930999755859375,-3.4660000801086426 -29.131000518798828,-19.55500030517578 C-18.332000732421875,-35.643001556396484 3.4660000801086426,-39.93000030517578 19.55500030517578,-29.131000518798828 C35.643001556396484,-18.33099937438965 39.930999755859375,3.4660000801086426 29.131000518798828,19.554000854492188z"></path>
            </g>
            <g opacity="1" transform="matrix(1,0,0,1,41.9640007019043,56.858001708984375)">
                <path fill="rgb(245,185,171)" fill-opacity="1"
                    d=" M-36.71099853515625,-8.024999618530273 C-35.57500076293945,-5.534999847412109 -33.731998443603516,-2.9000000953674316 -31.959999084472656,-0.6639999747276306 C-19.9060001373291,14.515000343322754 2.617000102996826,16.53499984741211 17.78700065612793,4.48799991607666 C27.743000030517578,-3.4140000343322754 31.535999298095703,-15.118000030517578 30.055999755859375,-26.860000610351562 C36.71099853515625,-12.51200008392334 33.69300079345703,4.5229997634887695 20.75,14.805000305175781 C5.586999893188477,26.861000061035156 -16.489999771118164,24.33300018310547 -28.54400062561035,9.154000282287598 C-32.68899917602539,3.940000057220459 -35.94499969482422,-1.8519999980926514 -36.71099853515625,-8.024999618530273z"></path>
            </g>
            <g opacity="1" transform="matrix(1,0,0,1,42.680999755859375,44.68199920654297)">
                <path stroke-linecap="round" stroke-linejoin="round" fill-opacity="0"
                    stroke="rgb(17,44,65)" stroke-opacity="1" stroke-width="2"
                    d=" M-30.06999969482422,-21.952999114990234 C-18.834999084472656,-36.25600051879883 1.7059999704360962,-39.680999755859375 17.05299949645996,-29.378999710083008 C33.141998291015625,-18.579999923706055 37.42900085449219,3.2160000801086426 26.628999710083008,19.30500030517578 C15.829999923706055,35.393001556396484 -5.9670000076293945,39.680999755859375 -22.05500030517578,28.881000518798828 C-30.533000946044922,23.190000534057617 -35.986000061035156,13.505000114440918 -37.42900085449219,4.151000022888184"></path>
            </g>
            <g opacity="1" transform="matrix(1,0,0,1,40.00899887084961,34.064998626708984)">
                <path stroke-linecap="round" stroke-linejoin="round" fill-opacity="0"
                    stroke="rgb(17,44,65)" stroke-opacity="1" stroke-width="2"
                    d=" M-19.30900001525879,3.812999963760376 C-13.532999992370605,-6.422999858856201 -0.7770000100135803,-10.163999557495117 9.182000160217285,-4.545000076293945 C14.819999694824219,-1.3639999628067017 18.351999282836914,4.133999824523926 19.30900001525879,10.163999557495117"></path>
            </g>
        </g>
        <g
            transform="matrix(-0.4440802335739136,-0.019312454387545586,-0.019312454387545586,0.4440802335739136,76.8265151977539,151.4437713623047)"
            opacity="1" style="display: block;">
            <g opacity="1" transform="matrix(1,0,0,1,18.27199935913086,18.273000717163086)">
                <path fill="rgb(255,255,255)" fill-opacity="1"
                    d=" M13.229000091552734,0.07900000363588333 C13.1850004196167,7.385000228881836 7.22599983215332,13.272000312805176 -0.07999999821186066,13.227999687194824 C-7.386000156402588,13.184000015258789 -13.272000312805176,7.22599983215332 -13.227999687194824,-0.07999999821186066 C-13.184000015258789,-7.386000156402588 -7.22599983215332,-13.27299976348877 0.07999999821186066,-13.229000091552734 C7.386000156402588,-13.1850004196167 13.27299976348877,-7.2270002365112305 13.229000091552734,0.07900000363588333z"></path>
                <path stroke-linecap="round" stroke-linejoin="round" fill-opacity="0"
                    stroke="rgb(17,44,65)" stroke-opacity="1" stroke-width="2"
                    d=" M13.229000091552734,0.07900000363588333 C13.1850004196167,7.385000228881836 7.22599983215332,13.272000312805176 -0.07999999821186066,13.227999687194824 C-7.386000156402588,13.184000015258789 -13.272000312805176,7.22599983215332 -13.227999687194824,-0.07999999821186066 C-13.184000015258789,-7.386000156402588 -7.22599983215332,-13.27299976348877 0.07999999821186066,-13.229000091552734 C7.386000156402588,-13.1850004196167 13.27299976348877,-7.2270002365112305 13.229000091552734,0.07900000363588333z"></path>
            </g>
        </g>
        <g
            transform="matrix(-0.9999818801879883,-0.006097930483520031,-0.006097930483520031,0.9999818801879883,159.63027954101562,219.23651123046875)"
            opacity="1" style="display: block;">
            <g opacity="1" transform="matrix(1,0,0,1,18.125,-104.93800354003906)">
                <path fill="rgb(18,45,66)" fill-opacity="1"
                    d=" M0,-4.6875 C1.8971562385559082,-4.6875 3.4375,-2.587031364440918 3.4375,0 C3.4375,2.587031364440918 1.8971562385559082,4.6875 0,4.6875 C-1.8971562385559082,4.6875 -3.4375,2.587031364440918 -3.4375,0 C-3.4375,-2.587031364440918 -1.8971562385559082,-4.6875 0,-4.6875z"></path>
                <path stroke-linecap="butt" stroke-linejoin="miter" fill-opacity="0"
                    stroke-miterlimit="4" stroke="rgb(255,5,5)" stroke-opacity="1" stroke-width="0"
                    d=" M0,-4.6875 C1.8971562385559082,-4.6875 3.4375,-2.587031364440918 3.4375,0 C3.4375,2.587031364440918 1.8971562385559082,4.6875 0,4.6875 C-1.8971562385559082,4.6875 -3.4375,2.587031364440918 -3.4375,0 C-3.4375,-2.587031364440918 -1.8971562385559082,-4.6875 0,-4.6875z"></path>
            </g>
        </g>
        <g
            transform="matrix(-0.922870934009552,0.38511088490486145,0.38511088490486145,0.922870934009552,166.21778869628906,215.76475524902344)"
            opacity="1" style="display: block;">
            <g opacity="1" transform="matrix(1,0,0,1,18.125,-104.93800354003906)">
                <path fill="rgb(18,45,66)" fill-opacity="1"
                    d=" M0,-4.6875 C1.8971562385559082,-4.6875 3.4375,-2.587031364440918 3.4375,0 C3.4375,2.587031364440918 1.8971562385559082,4.6875 0,4.6875 C-1.8971562385559082,4.6875 -3.4375,2.587031364440918 -3.4375,0 C-3.4375,-2.587031364440918 -1.8971562385559082,-4.6875 0,-4.6875z"></path>
                <path stroke-linecap="butt" stroke-linejoin="miter" fill-opacity="0"
                    stroke-miterlimit="4" stroke="rgb(255,5,5)" stroke-opacity="1" stroke-width="0"
                    d=" M0,-4.6875 C1.8971562385559082,-4.6875 3.4375,-2.587031364440918 3.4375,0 C3.4375,2.587031364440918 1.8971562385559082,4.6875 0,4.6875 C-1.8971562385559082,4.6875 -3.4375,2.587031364440918 -3.4375,0 C-3.4375,-2.587031364440918 -1.8971562385559082,-4.6875 0,-4.6875z"></path>
            </g>
        </g>
        <g
            transform="matrix(-0.44306129217147827,-0.035734210163354874,-0.035734210163354874,0.44306129217147827,93.9317626953125,3.9336187839508057)"
            opacity="1" style="display: block;">
            <g opacity="1" transform="matrix(1,0,0,1,112.43099975585938,101.41799926757812)">
                <path stroke-linecap="round" stroke-linejoin="round" fill-opacity="0"
                    stroke="rgb(17,44,65)" stroke-opacity="1" stroke-width="2"
                    d=" M10.920000076293945,-73.50900268554688 C47.590999603271484,-50.28099822998047 64.59200286865234,-3.765000104904175 43.75199890136719,30.584999084472656 C22.913000106811523,64.93599700927734 -26.777999877929688,73.50900268554688 -64.59300231933594,49.124000549316406"></path>
            </g>
            <g opacity="1" transform="matrix(1,0,0,1,82.72899627685547,87.48300170898438)">
                <path fill="rgb(151,151,247)" fill-opacity="1"
                    d=" M-40.39099884033203,60.17100143432617 C-73.62300109863281,37.86399841308594 -82.47899627685547,-7.159999847412109 -60.17100143432617,-40.391998291015625 C-37.86399841308594,-73.62300109863281 7.158999919891357,-82.47799682617188 40.39099884033203,-60.17100143432617 C73.62300109863281,-37.86399841308594 82.47899627685547,7.159999847412109 60.17100143432617,40.391998291015625 C37.86399841308594,73.62300109863281 -7.158999919891357,82.47799682617188 -40.39099884033203,60.17100143432617z"></path>
            </g>
            <g opacity="1" transform="matrix(1,0,0,1,75.5479965209961,76.95999908447266)">
                <path fill="rgb(178,176,247)" fill-opacity="1"
                    d=" M52.79399871826172,31.19300079345703 C31.191999435424805,63.38800048828125 -12.411999702453613,71.95999908447266 -44.595001220703125,50.358001708984375 C-51.034000396728516,46.02799987792969 -56.5359992980957,40.83000183105469 -61.03300094604492,35.005001068115234 C-68.52300262451172,14.081000328063965 -66.33000183105469,-10.005000114440918 -52.99300003051758,-29.871999740600586 C-30.683000564575195,-63.097999572753906 14.338000297546387,-71.96099853515625 47.57500076293945,-49.6510009765625 C50.027000427246094,-48.00299835205078 52.35200119018555,-46.23899841308594 54.5260009765625,-44.36199951171875 C68.2509994506836,-21.72100067138672 68.52300262451172,7.763000011444092 52.79399871826172,31.19300079345703z"></path>
            </g>
            <g opacity="1" transform="matrix(1,0,0,1,85.29399871826172,87.48300170898438)">
                <path stroke-linecap="round" stroke-linejoin="round" fill-opacity="0"
                    stroke="rgb(17,44,65)" stroke-opacity="1" stroke-width="2"
                    d=" M44.779998779296875,-54.88600158691406 C72.18900299072266,-31.288000106811523 78.26899719238281,9.609000205993652 57.608001708984375,40.39500045776367 C35.29800033569336,73.62000274658203 -9.722999572753906,82.48300170898438 -42.959999084472656,60.17300033569336 C-56.319000244140625,51.20000076293945 -65.74500274658203,38.558998107910156 -70.77899932861328,24.482999801635742 C-78.26899719238281,3.558000087738037 -76.07599639892578,-20.527999877929688 -62.73899841308594,-40.39500045776367 C-40.42900085449219,-73.62100219726562 4.5920000076293945,-82.48300170898438 37.82899856567383,-60.17300033569336 C40.28099822998047,-58.525001525878906 42.60599899291992,-56.76300048828125 44.779998779296875,-54.88600158691406z"></path>
            </g>
        </g>
    </g>
</svg>